<?xml version="1.0" standalone="no"?>
<!DOCTYPE svg PUBLIC "-//W3C//DTD SVG 20010904//EN"
 "http://www.w3.org/TR/2001/REC-SVG-20010904/DTD/svg10.dtd">
<svg version="1.0" xmlns="http://www.w3.org/2000/svg"
 width="1280.000000pt" height="808.000000pt" viewBox="0 0 1280.000000 808.000000"
 preserveAspectRatio="xMidYMid meet">
<g transform="translate(0.000000,808.000000) scale(0.100000,-0.100000)"
fill="#000000" stroke="none">
<path d="M7699 7938 c-271 -180 -274 -183 -449 -353 -99 -97 -188 -172 -280
-237 -156 -110 -170 -118 -203 -118 -13 0 -50 -17 -83 -38 -61 -40 -240 -184
-261 -212 -11 -13 -12 -13 -12 5 0 11 6 54 14 95 7 41 12 76 10 78 -1 1 -26
-34 -55 -78 -60 -91 -81 -95 -63 -13 6 26 10 49 8 51 -2 2 -14 -18 -26 -45
l-23 -48 -5 50 c-6 53 -21 41 -21 -16 0 -51 -17 -23 -24 38 -4 32 -10 72 -15
88 -7 27 -9 24 -21 -40 l-14 -70 -12 50 c-8 32 -13 41 -13 25 -1 -14 -8 -38
-15 -55 -13 -29 -13 -28 -21 43 -4 39 -10 72 -14 72 -4 0 -14 -26 -21 -57 -19
-88 -24 -92 -51 -37 l-24 49 -3 -57 c-4 -68 -21 -76 -53 -25 l-21 32 6 -42 c8
-54 -10 -61 -47 -19 l-27 31 6 -41 c4 -27 2 -44 -5 -49 -7 -4 -60 25 -120 64
-135 88 -204 121 -255 121 -29 0 -75 18 -175 71 -173 90 -272 156 -391 259
-103 88 -201 151 -350 225 -52 26 -154 76 -226 112 -156 78 -177 79 -168 5 12
-106 24 -121 123 -151 36 -11 83 -32 104 -46 32 -22 37 -31 37 -64 0 -50 28
-75 110 -100 72 -22 192 -94 336 -201 95 -71 111 -80 98 -57 -4 7 -3 9 2 4 5
-5 9 -14 9 -20 0 -5 6 -12 14 -15 9 -3 11 0 6 9 -5 8 -4 11 1 6 5 -5 9 -14 9
-20 0 -5 6 -12 14 -15 9 -3 11 0 6 9 -5 8 -4 11 1 6 5 -5 9 -14 9 -20 0 -5 6
-12 14 -15 9 -3 11 0 6 8 -5 9 -4 11 4 6 6 -4 9 -11 6 -16 -3 -4 15 -20 39
-34 49 -29 61 -32 50 -14 -4 7 -3 8 5 4 6 -4 9 -11 6 -16 -8 -13 272 -165 357
-194 81 -27 137 -35 83 -12 -16 7 -33 11 -37 9 -5 -2 -8 1 -8 7 0 7 -7 10 -15
6 -8 -3 -15 -2 -15 3 0 5 -13 11 -28 14 -16 3 -53 17 -83 30 -51 23 -55 26
-57 62 -4 50 -5 51 -49 60 -56 10 -136 46 -256 115 -60 33 -112 58 -117 55 -5
-3 -14 4 -20 15 -6 11 -15 18 -20 15 -4 -3 -10 -2 -12 2 -1 5 -64 48 -138 98
-74 49 -137 92 -140 95 -3 3 -11 5 -17 6 -36 3 -38 4 -25 13 9 5 -7 22 -55 55
-59 41 -68 44 -75 29 -5 -14 -7 -11 -7 10 -1 35 -4 37 179 -97 146 -106 372
-246 530 -329 83 -44 111 -55 196 -76 38 -10 40 -13 36 -40 -6 -43 30 -74 124
-104 44 -14 103 -37 132 -50 49 -23 51 -25 34 -41 -26 -22 -38 -20 -109 18
-35 19 -63 30 -63 25 0 -5 13 -36 30 -69 16 -32 26 -61 22 -64 -5 -3 -36 20
-70 50 -34 31 -62 53 -62 50 0 -3 14 -35 32 -70 18 -36 29 -68 26 -71 -3 -4
-25 14 -49 39 -23 26 -44 45 -46 43 -2 -2 6 -24 17 -48 11 -24 20 -50 20 -56
0 -18 -34 -16 -90 4 -42 15 -54 15 -102 4 -41 -10 -60 -11 -76 -2 -30 16 -32
14 -22 -21 13 -42 -2 -61 -37 -47 -14 5 -27 8 -30 6 -2 -2 4 -21 13 -42 13
-32 13 -46 3 -87 -17 -71 -15 -166 4 -211 16 -37 16 -38 -8 -49 -35 -16 -31
-32 5 -25 23 5 32 2 40 -13 8 -15 4 -23 -23 -44 -35 -28 -30 -31 21 -17 27 8
34 7 42 -8 7 -14 4 -24 -15 -41 -35 -33 -31 -43 13 -36 34 6 38 4 55 -26 l19
-33 -39 -33 -38 -34 30 7 c17 4 38 9 47 11 12 4 19 -3 24 -22 7 -28 0 -242 -9
-250 -2 -3 -22 6 -42 21 -21 14 -42 25 -46 25 -5 0 -17 17 -28 38 l-19 37 -13
-28 c-17 -38 -32 -29 -44 26 -5 25 -13 48 -16 51 -3 3 -11 -17 -18 -44 -7 -28
-16 -50 -21 -50 -4 0 -12 21 -17 48 l-10 47 -8 -43 c-9 -50 -25 -65 -26 -25 0
15 -4 37 -9 48 -6 15 -9 8 -9 -29 -1 -62 -8 -55 -30 31 l-18 68 -7 -50 c-11
-76 -14 -83 -15 -42 -1 49 -17 47 -26 -3 -8 -47 -21 -59 -31 -28 -6 21 -27 48
-37 48 -3 0 -8 -11 -11 -25 -13 -52 -40 -13 -38 55 0 32 0 33 -9 10 -6 -18 -8
-5 -5 45 3 66 3 68 -10 38 -7 -17 -18 -34 -23 -38 -6 -3 -7 -13 -4 -22 4 -10
2 -14 -4 -10 -6 4 -14 0 -17 -9 -3 -8 -2 -12 4 -9 12 8 13 -5 1 -24 -10 -15
-30 64 -32 127 -1 20 -4 51 -8 67 l-7 30 -7 -30 c-3 -16 -9 -52 -13 -78 -3
-26 -8 -46 -11 -43 -2 2 -8 44 -12 93 l-7 88 -23 -75 c-39 -124 -42 -120 -45
56 -1 80 -12 77 -37 -10 l-14 -49 -5 69 -5 69 -27 -45 -28 -45 0 90 -1 90 -27
-50 -27 -50 -5 85 -5 85 -19 -43 c-10 -24 -24 -41 -30 -39 -6 2 -13 38 -16 88
l-5 84 -21 -65 c-18 -58 -21 -63 -31 -45 -6 11 -13 52 -16 90 -2 39 -2 57 1
40 6 -30 6 -30 13 10 5 27 6 15 4 -37 -3 -48 -1 -78 5 -78 6 0 10 6 10 13 0 6
2 49 3 95 2 52 0 77 -5 68 -26 -46 -35 9 -12 69 6 17 5 18 -7 8 -8 -6 -16 -26
-17 -44 -4 -45 -13 -51 -13 -9 -1 102 -4 118 -20 110 -20 -11 -46 -7 -62 10
-9 10 -9 11 1 6 8 -5 12 0 11 16 0 13 -3 18 -5 11 -3 -7 -12 -9 -21 -6 -12 5
-14 3 -8 -6 4 -7 -5 -5 -21 5 -38 23 -43 29 -21 21 27 -10 20 1 -13 18 -22 11
-30 23 -31 43 -1 25 -2 25 -11 -8 -6 -19 -13 -29 -15 -22 -3 7 0 27 6 44 14
39 15 90 2 68 -6 -8 -8 -17 -5 -21 2 -4 -3 -13 -12 -20 -22 -18 -34 4 -24 46
8 33 7 34 -15 19 -18 -12 -24 -12 -33 -2 -11 14 -12 17 -12 54 l0 26 -20 -23
-19 -24 -2 35 c0 19 -4 46 -8 60 -7 23 -8 21 -15 -17 -9 -48 -12 -50 -44 -27
-16 11 -22 26 -23 57 0 23 -4 50 -8 60 -6 17 -8 16 -19 -8 l-12 -26 -49 50
c-28 28 -54 51 -60 51 -5 0 -12 19 -14 43 l-3 42 -8 -32 c-5 -18 -11 -33 -15
-33 -15 1 -30 17 -36 43 -8 32 -25 36 -25 6 0 -15 -4 -19 -16 -15 -9 3 -18 6
-20 6 -2 0 -4 11 -4 25 0 14 -4 25 -10 25 -5 0 -10 -7 -10 -16 0 -10 -7 -14
-22 -12 -20 3 -24 11 -28 53 -4 42 -7 46 -14 27 -7 -22 -9 -23 -27 -6 -10 9
-19 27 -19 38 0 12 -4 27 -9 34 -7 11 -9 11 -14 -2 -5 -13 -9 -13 -37 1 -23
11 -46 13 -86 8 -53 -6 -54 -6 -54 18 0 36 -23 51 -70 43 -39 -6 -39 -6 -45
31 -14 87 -39 89 -43 3 -2 -35 -8 -70 -13 -76 -6 -7 -33 -20 -60 -30 -27 -10
-57 -26 -65 -35 -15 -16 -13 -19 15 -33 17 -9 52 -19 78 -22 87 -10 92 -12
100 -47 7 -28 20 -38 97 -77 73 -37 99 -45 152 -46 35 -2 68 -6 74 -9 5 -3 10
-24 10 -45 0 -44 13 -56 115 -109 58 -29 59 -31 27 -31 -23 0 -31 4 -26 12 5
8 2 9 -10 5 -11 -4 -15 -3 -10 4 4 7 -1 9 -17 5 -13 -3 -18 -3 -12 0 8 3 -3
18 -30 38 -34 26 -43 39 -47 71 l-5 40 -65 6 c-36 3 -88 14 -117 24 -43 16
-54 17 -67 6 -9 -7 -16 -17 -16 -21 0 -13 55 -32 117 -40 87 -12 97 -15 101
-31 3 -11 1 -11 -7 1 -13 19 -14 0 -2 -33 13 -33 145 -88 231 -96 63 -6 64 -7
71 -38 3 -17 13 -39 22 -48 9 -9 20 -22 25 -30 4 -8 20 -16 35 -17 15 -1 27
-4 27 -7 0 -2 -12 -20 -26 -39 -23 -29 -24 -33 -8 -29 11 3 30 8 44 12 24 5
23 5 -3 -10 -33 -19 -31 -25 15 -34 l33 -7 -37 -25 c-21 -13 -38 -27 -38 -31
0 -3 18 -9 40 -13 22 -4 48 -14 56 -23 15 -15 14 -18 -11 -38 l-28 -22 37 -7
c32 -7 40 -14 65 -64 l29 -56 -19 -38 c-11 -21 -17 -41 -15 -46 3 -5 25 -12
48 -15 70 -11 73 -14 70 -107 -2 -37 -6 -48 -24 -57 -21 -9 -20 -11 19 -17 23
-4 50 -16 59 -26 16 -18 16 -20 0 -38 -18 -19 -17 -19 18 -9 48 15 72 -4 57
-45 -12 -31 -12 -31 25 -17 40 16 67 4 59 -27 -5 -23 -3 -24 24 -21 17 1 30
-2 29 -7 0 -6 -11 -9 -22 -7 -20 3 -20 3 -2 -10 15 -12 17 -18 7 -36 -6 -12
-10 -22 -9 -22 2 0 25 7 52 15 l48 15 -15 -23 c-24 -37 -8 -50 39 -34 21 8 45
12 52 10 17 -6 15 -40 -3 -47 -13 -4 -14 -2 -5 14 6 11 7 20 2 20 -8 0 -32
-42 -32 -56 0 -3 8 0 19 5 10 6 22 7 26 3 4 -4 17 -7 28 -7 17 0 21 -5 19 -24
-1 -17 2 -22 13 -18 8 4 17 2 20 -3 4 -6 28 -10 54 -10 69 0 80 -17 35 -56
l-37 -31 27 -5 c14 -3 26 -2 26 3 0 4 8 8 18 8 9 -1 35 3 56 7 29 5 37 4 32
-5 -4 -6 -17 -9 -29 -6 -12 2 -17 2 -11 0 6 -3 10 -20 9 -38 l-3 -32 54 0 c47
0 52 2 37 13 -10 7 -30 12 -45 9 -16 -2 -28 0 -28 4 0 12 86 22 125 15 41 -8
39 -17 -10 -40 -50 -24 -43 -34 18 -25 70 10 122 11 113 2 -4 -5 -17 -9 -29
-9 -12 -1 -50 -3 -85 -4 -77 -4 -93 -20 -20 -20 30 0 60 -6 66 -12 8 -8 37
-12 82 -9 39 1 70 0 70 -3 0 -3 -15 -13 -32 -21 -29 -14 -31 -14 -14 0 11 8
15 15 9 15 -7 0 -14 -4 -17 -9 -3 -5 -24 -7 -45 -4 -30 4 -48 0 -76 -17 -20
-12 -35 -24 -33 -25 2 -2 30 2 63 9 63 12 176 13 185 1 3 -4 -6 -15 -20 -24
-24 -15 -24 -15 -11 2 12 15 10 17 -20 17 -19 0 -43 -7 -53 -15 -18 -14 -17
-15 22 -15 23 0 42 -4 42 -10 0 -5 6 -7 13 -4 34 13 95 10 127 -7 19 -9 54
-20 78 -24 44 -7 49 -14 31 -46 -6 -13 -17 -18 -28 -14 -9 3 -64 7 -121 9
l-105 4 60 -14 60 -13 -55 5 c-30 3 -68 11 -85 19 -16 7 -50 16 -75 19 -25 4
-180 42 -345 86 -1278 337 -2226 555 -2804 645 -555 86 -790 103 -1019 75
-197 -25 -407 -98 -497 -176 -16 -14 -23 -22 -15 -18 8 5 -5 -14 -29 -41 -23
-28 -54 -69 -68 -92 -14 -24 -27 -43 -29 -43 -13 0 44 91 79 128 23 23 36 42
30 42 -17 0 -80 -77 -105 -129 -16 -33 -23 -70 -26 -131 -3 -74 0 -97 27 -180
17 -53 48 -124 68 -158 98 -160 362 -438 642 -674 96 -81 177 -146 180 -145 3
1 37 -16 75 -38 132 -74 183 -87 356 -93 137 -4 358 8 445 24 30 6 30 6 -7
-18 -47 -29 -69 -60 -70 -97 -2 -52 33 -93 142 -168 58 -40 112 -78 120 -85
19 -17 99 -60 284 -154 360 -183 702 -313 905 -345 185 -28 476 78 1321 481
129 62 242 114 251 115 9 2 75 36 145 76 71 39 185 97 253 128 l124 57 59
-118 c32 -66 58 -123 58 -127 0 -5 -29 -11 -65 -15 -35 -4 -94 -16 -130 -27
-60 -18 -67 -19 -96 -4 -37 20 -47 15 -19 -10 18 -17 28 -45 15 -45 -4 0 -19
7 -35 15 -34 18 -36 14 -14 -20 21 -32 11 -47 -22 -35 -43 17 -49 11 -22 -17
l27 -28 -18 -50 c-10 -28 -21 -67 -25 -88 -8 -44 -19 -46 -88 -11 -44 23 -50
23 -43 7 20 -47 18 -63 -6 -63 -13 1 -35 7 -49 15 -34 20 -43 18 -30 -4 5 -11
10 -22 10 -25 0 -19 -78 11 -108 40 -7 8 -18 14 -24 14 -6 0 -8 -3 -5 -7 4 -3
1 -13 -6 -21 -10 -13 -9 -14 9 -8 16 5 26 0 38 -19 17 -25 17 -26 -1 -17 -10
5 -39 19 -65 31 -27 13 -51 27 -54 33 -3 5 8 2 26 -7 32 -16 45 -14 45 8 0 6
15 12 34 13 22 1 29 -1 20 -7 -42 -26 24 -1 163 63 94 44 157 79 158 87 0 8
-10 25 -22 38 -29 31 -13 50 31 35 36 -13 37 -10 15 24 -24 36 -5 52 32 27
l29 -18 -23 29 c-30 39 -15 56 31 34 31 -15 38 -15 91 3 32 11 87 23 122 26
35 3 64 7 64 8 0 1 -25 52 -55 113 l-55 111 -32 -11 c-18 -6 -105 -48 -193
-94 -279 -143 -297 -152 -450 -223 -82 -38 -245 -114 -361 -169 -424 -202
-757 -329 -924 -353 -78 -11 -94 -10 -188 10 -205 44 -502 159 -832 324 -102
51 -188 93 -192 95 -8 4 -5 -19 5 -35 11 -17 30 -17 21 0 -4 7 -3 9 2 4 5 -5
9 -14 9 -19 0 -6 6 -13 14 -16 9 -3 11 0 6 9 -5 8 -4 11 1 6 5 -5 9 -14 9 -20
0 -5 6 -12 14 -15 9 -3 11 0 6 8 -5 9 -4 11 4 6 6 -4 9 -11 6 -16 -8 -12 33
-33 47 -24 7 4 8 3 4 -4 -21 -34 631 -343 934 -442 180 -59 261 -74 354 -67
68 5 233 49 326 87 170 68 240 91 259 85 12 -3 21 -10 21 -15 0 -16 -24 -25
-85 -31 l-60 -5 33 -13 c18 -7 31 -16 28 -19 -3 -3 -41 -4 -83 -3 l-78 1 43
-38 44 -37 -42 -53 c-31 -38 -49 -52 -68 -53 -15 0 -36 -4 -47 -8 -19 -8 -18
-9 8 -21 15 -7 27 -16 27 -20 0 -17 -29 -30 -70 -31 -25 0 -38 -3 -30 -6 8 -3
26 -10 39 -15 22 -8 23 -10 7 -27 -9 -10 -37 -24 -62 -31 -56 -16 -64 -28 -24
-36 48 -10 36 -38 -20 -44 l-45 -6 27 -14 c31 -15 33 -22 18 -51 -8 -14 -21
-19 -50 -19 -47 0 -51 -10 -11 -28 22 -10 28 -18 24 -33 -3 -11 -12 -23 -19
-25 -49 -15 -50 -16 -26 -25 35 -13 23 -40 -23 -54 l-40 -11 38 -13 c48 -16
50 -41 2 -41 -44 0 -46 -18 -2 -22 46 -4 37 -20 -24 -43 -30 -11 -47 -20 -39
-22 86 -12 90 -13 90 -41 0 -40 -19 -56 -41 -36 -17 15 -18 13 -25 -21 -3 -20
-13 -39 -20 -42 -8 -3 -35 7 -60 22 -40 23 -45 25 -40 9 3 -11 9 -38 15 -62 8
-39 7 -43 -13 -47 -11 -3 -43 1 -71 10 -72 21 -76 19 -22 -15 26 -17 47 -32
47 -35 0 -2 -29 7 -65 20 -36 14 -68 25 -71 25 -3 0 11 -19 30 -42 20 -23 36
-45 36 -49 0 -11 -64 -49 -82 -49 -8 0 -41 9 -73 19 l-57 19 36 -37 c50 -51
41 -56 -61 -35 -20 4 -22 1 -17 -26 9 -42 -18 -50 -68 -21 l-38 22 6 -41 c6
-35 4 -40 -12 -40 -11 0 -30 7 -42 16 -29 20 -35 14 -23 -19 9 -24 8 -27 -15
-33 -14 -4 -41 -4 -61 -1 -28 5 -33 3 -25 -5 17 -17 15 -26 -6 -37 -14 -8 -27
-4 -55 14 -36 25 -91 33 -101 16 -3 -5 18 -28 48 -52 44 -35 53 -48 49 -66 -4
-18 -1 -23 15 -23 17 0 22 -8 27 -48 3 -26 7 -54 8 -62 2 -8 13 15 27 53 13
37 27 67 30 67 4 0 13 -18 20 -40 8 -25 30 -54 61 -80 52 -44 73 -52 43 -17
l-19 22 21 -18 c16 -13 21 -28 20 -53 -1 -29 2 -34 21 -34 21 0 23 -5 24 -57
0 -62 0 -63 40 32 l21 50 22 -50 23 -50 12 53 c15 62 36 76 62 43 l19 -23 10
27 c5 14 10 30 10 35 0 4 12 11 26 14 22 6 33 1 59 -24 l32 -31 11 48 c7 27
14 55 16 62 1 8 9 17 17 19 11 3 11 1 -1 -7 -13 -9 -13 -11 1 -11 9 0 23 -10
31 -22 15 -22 15 -22 22 14 7 37 34 58 47 36 5 -8 12 -3 20 17 7 17 12 33 11
37 -1 4 7 12 18 18 12 6 20 7 20 1 0 -5 -8 -12 -17 -14 -17 -4 -17 -5 0 -6 9
0 18 -9 18 -18 1 -10 4 -5 8 11 7 34 41 59 49 36 3 -9 13 2 26 30 27 57 46 63
46 15 0 -21 4 -34 10 -30 5 3 7 20 3 37 -4 22 -3 29 5 24 6 -4 9 -13 5 -21
-11 -30 6 -14 37 35 18 28 34 50 37 50 3 0 12 -8 20 -18 14 -16 14 -16 9 1 -3
9 -1 17 5 17 7 0 9 -10 5 -24 -3 -14 -2 -27 2 -30 5 -3 14 30 21 72 6 42 14
88 18 101 5 19 3 22 -8 16 -8 -4 4 11 26 34 21 22 43 41 47 41 4 0 -7 -15 -25
-32 -18 -18 -21 -23 -7 -10 32 27 50 28 77 2 l22 -19 12 37 c11 36 36 72 49
72 3 0 11 -12 17 -27 10 -25 11 -21 12 35 1 34 4 62 9 62 4 0 16 -16 26 -35
11 -19 21 -33 23 -31 3 2 -1 41 -7 85 -10 64 -10 88 0 111 12 29 14 30 31 14
22 -20 23 -17 8 39 -7 31 -7 51 1 72 10 27 13 28 24 13 11 -15 12 -10 8 32 -4
49 9 69 22 34 12 -30 16 -8 5 24 -9 27 -6 45 17 114 15 46 31 85 36 86 4 2 6
8 3 12 -3 5 22 -9 55 -31 44 -30 60 -46 59 -62 l-1 -22 -6 22 c-4 12 -29 37
-57 54 -34 22 -44 25 -32 11 10 -11 32 -26 48 -32 23 -10 29 -19 29 -41 0 -32
15 -39 24 -11 4 10 23 24 44 30 l37 11 -37 -3 c-47 -3 -36 11 12 16 32 3 35 1
32 -22 -2 -24 -2 -24 15 5 9 17 17 33 18 37 0 3 4 10 9 15 5 5 6 2 1 -6 -5 -9
-3 -12 6 -9 8 3 14 10 14 16 0 5 4 14 9 19 5 5 6 3 2 -4 -4 -7 -3 -13 3 -13 5
0 15 8 20 18 6 9 11 12 11 5 0 -6 -4 -15 -10 -18 -5 -3 -10 -23 -9 -43 l1 -37
14 45 c8 25 17 52 21 60 3 8 7 18 7 22 1 3 5 10 10 15 5 5 6 2 1 -6 -6 -10 -2
-12 13 -7 16 5 21 2 25 -16 3 -18 5 -16 6 8 0 17 8 37 16 44 8 7 13 16 10 20
-3 5 -1 12 5 15 6 4 9 3 8 -2 -2 -4 5 -19 14 -32 l17 -23 6 35 c4 20 13 41 21
48 8 6 12 15 9 19 -3 5 0 12 6 16 7 4 9 3 6 -3 -4 -6 0 -16 8 -23 11 -10 16
-6 24 22 5 18 10 25 10 15 1 -10 -4 -27 -9 -38 -7 -12 -7 -25 -2 -36 7 -12 11
-4 17 35 4 28 13 56 21 63 7 6 12 15 9 19 -3 4 3 14 13 21 15 13 16 12 3 -3
-8 -11 -9 -18 -3 -18 6 0 14 5 17 11 5 7 13 5 24 -5 21 -19 31 -12 31 23 0 13
10 36 23 50 l22 26 -27 -24 c-16 -14 -28 -35 -28 -48 0 -13 -4 -22 -10 -18
-13 8 -2 35 27 66 l24 26 -30 49 c-17 26 -31 53 -31 60 0 7 25 18 56 25 55 13
55 13 79 -17 l24 -29 1 32 c0 25 -7 37 -32 55 -18 12 -40 22 -48 20 -13 -2
-13 -1 -1 7 16 10 31 4 66 -26 28 -24 34 -43 23 -72 l-9 -24 -28 27 c-27 26
-30 26 -75 15 -25 -6 -46 -13 -46 -16 0 -2 16 -29 36 -60 l36 -56 -20 -41
c-11 -23 -25 -75 -31 -116 -10 -61 -17 -81 -40 -104 l-29 -29 -37 23 c-20 12
-38 21 -40 18 -2 -2 1 -23 6 -48 9 -40 8 -46 -14 -68 -23 -23 -26 -23 -55 -8
-43 22 -46 20 -22 -15 21 -28 21 -31 5 -48 -10 -12 -24 -17 -38 -13 -20 5 -21
4 -8 -11 20 -25 -11 -57 -56 -57 -33 0 -33 0 -17 -25 15 -23 14 -27 -16 -81
-30 -52 -35 -56 -62 -50 -25 5 -29 3 -24 -10 20 -53 18 -63 -59 -194 -126
-217 -129 -224 -121 -349 3 -58 7 -115 9 -126 2 -21 -1 -22 -48 -11 -29 7 -29
7 -11 -13 28 -31 15 -52 -26 -40 -18 5 -35 9 -37 9 -2 0 4 -12 14 -26 22 -34
5 -57 -31 -43 -36 13 -38 12 -21 -15 15 -22 15 -25 -3 -41 -13 -12 -27 -15
-45 -11 -27 7 -33 -2 -13 -22 9 -9 0 -24 -38 -64 -61 -66 -129 -147 -182 -217
l-41 -55 29 -37 30 -37 -30 -5 c-24 -5 -31 -14 -41 -49 -6 -24 -13 -49 -15
-55 -2 -9 -25 -13 -68 -13 -73 0 -84 -11 -72 -75 6 -33 6 -33 -36 -40 -24 -4
-50 -11 -59 -16 -19 -9 -39 -59 -39 -95 0 -19 -11 -26 -72 -47 -70 -23 -73
-25 -72 -55 2 -29 1 -30 -28 -20 -22 8 -39 6 -73 -6 -72 -28 -74 -38 -21 -99
36 -43 46 -62 46 -90 0 -61 37 -60 66 1 22 48 21 47 39 32 9 -7 17 -11 18 -9
2 2 21 26 42 53 l39 48 12 -33 c7 -19 13 -26 13 -17 1 18 67 98 80 98 4 0 12
-12 17 -28 10 -26 11 -25 18 23 7 45 28 85 46 85 4 0 13 -19 21 -42 l14 -43 3
65 c2 53 8 70 27 90 14 14 30 41 36 59 l12 34 14 -27 c7 -14 15 -26 18 -26 2
0 2 26 -1 57 -3 41 -2 52 5 38 5 -11 10 -31 10 -45 2 -46 21 1 21 52 0 26 4
50 10 53 6 3 10 -3 10 -14 0 -11 5 -23 10 -26 6 -4 10 10 10 34 0 56 15 59 31
6 7 -25 16 -45 20 -45 3 0 9 30 12 67 5 53 11 72 28 86 32 25 42 17 56 -42 6
-29 13 -54 15 -57 3 -2 10 21 17 51 9 40 17 55 29 55 31 0 60 29 93 95 29 57
35 63 48 50 13 -13 12 -18 -10 -42 l-24 -27 31 25 c24 18 29 28 23 41 -13 25
-11 72 5 93 13 18 14 18 48 -3 20 -12 38 -22 41 -22 3 0 -5 25 -19 55 -28 60
-24 87 7 59 22 -20 23 -16 9 22 -6 15 -8 34 -5 42 5 13 8 12 20 -4 13 -17 14
-15 15 31 0 64 10 81 38 66 20 -10 20 -9 11 22 -11 38 4 83 29 90 9 3 24 8 33
11 21 9 35 -25 44 -107 9 -80 5 -88 -36 -77 -31 9 -31 9 -14 -10 26 -29 5 -51
-36 -40 -30 9 -31 9 -16 -14 14 -21 14 -25 0 -39 -12 -11 -22 -13 -40 -6 -22
8 -23 7 -12 -12 8 -16 7 -25 -6 -39 -9 -10 -15 -24 -14 -32 4 -15 -138 -158
-154 -155 -5 1 -12 -4 -15 -12 -3 -10 0 -11 9 -5 12 7 12 5 0 -9 -7 -9 -18
-14 -24 -10 -6 4 -8 0 -4 -9 3 -10 -4 -25 -19 -39 -13 -12 -24 -19 -24 -15 0
5 -7 3 -15 -4 -21 -18 -19 -35 3 -19 15 11 15 11 4 -1 -7 -8 -18 -15 -24 -15
-6 0 -13 -6 -16 -14 -3 -9 0 -11 8 -6 9 5 11 4 6 -4 -4 -6 -12 -9 -18 -5 -6 4
-8 -3 -6 -17 1 -13 8 -24 15 -24 7 0 18 -7 25 -15 11 -12 11 -12 -4 -1 -11 8
-18 9 -18 3 0 -6 5 -14 10 -17 18 -11 10 -22 -19 -28 -26 -6 -31 -12 -42 -61
l-12 -55 -66 -3 -66 -3 0 -52 0 -52 -49 -7 c-53 -7 -86 -32 -86 -66 0 -56 -10
-66 -84 -91 -39 -14 -70 -28 -70 -33 1 -5 5 -20 9 -33 6 -21 5 -23 -11 -16
-39 16 -62 16 -97 2 -28 -12 -35 -20 -32 -37 2 -11 0 -18 -6 -15 -5 4 -7 11
-4 16 4 5 2 9 -4 9 -25 0 -16 -21 29 -65 45 -44 50 -54 50 -92 0 -43 5 -49 27
-35 17 11 53 94 46 106 -4 5 -1 6 6 2 7 -5 10 -11 7 -14 -3 -3 -1 -11 6 -19 9
-11 16 -9 40 13 33 33 38 56 6 28 -20 -17 -20 -15 2 11 14 17 27 32 29 35 2 3
1 -4 -3 -14 -7 -19 -6 -19 13 -2 18 17 19 16 29 -11 6 -15 11 -21 11 -13 1 9
21 35 45 59 l44 43 9 -29 c10 -27 10 -27 17 19 4 26 11 50 17 53 5 4 7 10 4
14 -2 5 5 8 17 7 15 -1 25 -10 29 -26 5 -18 7 -11 7 25 1 38 -2 45 -9 30 l-9
-20 3 20 c1 11 9 20 17 20 8 1 14 7 12 14 -1 7 2 10 7 7 15 -10 51 44 51 75 0
16 5 29 11 29 5 0 7 5 3 12 -4 7 -3 8 5 4 6 -4 9 -12 6 -17 -4 -5 -1 -17 4
-26 8 -14 10 -8 11 30 0 55 19 64 21 10 1 -36 2 -36 10 12 15 78 18 84 34 55
l13 -25 4 38 c4 48 20 49 34 1 8 -29 12 -34 17 -20 4 10 7 35 7 57 0 29 7 47
25 64 13 14 29 25 34 25 14 0 28 -28 37 -75 l7 -40 13 48 c7 27 14 50 16 51 2
1 16 6 32 11 22 7 40 28 68 75 21 36 40 70 42 75 3 6 9 3 16 -5 9 -12 11 -9 7
15 -5 26 15 85 29 85 3 0 18 -7 34 -15 35 -18 35 -17 15 32 -8 19 -15 45 -15
57 0 17 -2 18 -10 6 -6 -9 -10 -10 -10 -3 0 22 18 23 45 1 l27 -21 -16 31 c-9
17 -13 38 -10 46 8 20 14 20 31 -2 12 -15 13 -13 7 19 -7 45 20 107 40 90 9
-8 12 -1 12 27 0 20 4 46 9 56 6 15 5 17 -5 11 -9 -6 -11 -4 -5 4 7 13 67 42
82 40 4 0 -10 -9 -32 -20 -36 -18 -23 -21 17 -4 12 5 21 -1 32 -22 l15 -28 1
36 c0 20 7 42 15 49 8 7 15 17 15 23 0 5 -10 2 -22 -9 -23 -19 -23 -19 -5 2
22 27 46 27 75 0 l24 -21 -8 30 c-4 17 -11 40 -15 52 -6 16 3 46 36 117 l45
95 -16 68 c-25 108 -44 269 -44 383 l-1 105 -19 -37 c-14 -27 -22 -68 -27
-150 -7 -94 -11 -113 -25 -116 -12 -2 -21 10 -32 45 l-15 48 2 -75 c2 -63 -1
-75 -15 -78 -10 -2 -19 6 -23 19 -6 17 -16 2 -53 -81 l-46 -102 13 -59 c15
-74 7 -89 -28 -55 -27 26 -28 26 -45 8 -13 -15 -17 -39 -17 -112 0 -50 -3 -90
-6 -87 -2 3 -4 47 -4 98 1 80 4 96 22 115 l21 22 29 -31 c32 -36 34 -33 16 44
l-14 56 53 117 c51 115 52 117 62 87 18 -51 27 -35 24 38 -2 39 1 78 6 87 8
15 12 10 22 -27 7 -24 14 -50 16 -57 2 -6 8 -12 14 -12 6 0 9 4 6 9 -3 5 -1
58 5 117 9 92 16 116 40 154 l29 45 0 -105 c0 -115 22 -313 44 -400 122 -475
326 -918 601 -1310 105 -148 270 -334 369 -415 196 -159 441 -149 692 30 79
57 243 218 320 315 243 307 454 741 554 1138 54 217 80 391 80 543 0 66 4 109
10 109 12 0 12 -52 0 -205 -32 -388 -183 -861 -391 -1228 -235 -414 -542 -720
-802 -802 -89 -29 -216 -33 -279 -11 -21 8 -38 10 -38 6 0 -9 25 -31 31 -27 2
1 3 0 1 -2 -4 -7 71 -81 82 -81 5 0 1 10 -10 23 l-19 22 22 -19 c12 -10 21
-23 20 -29 -1 -6 33 -29 77 -51 71 -36 87 -40 175 -44 68 -3 114 0 158 11 73
19 206 84 198 97 -3 5 0 12 6 16 8 4 9 3 5 -4 -10 -17 6 -15 32 4 12 8 20 19
17 24 -3 5 0 12 6 16 8 4 9 3 5 -4 -4 -7 -3 -12 2 -12 12 0 33 25 27 32 -3 2
10 18 28 34 31 28 31 28 8 1 -14 -15 -20 -27 -15 -27 13 0 116 105 109 112 -3
3 1 11 10 18 8 7 15 9 15 4 0 -4 14 5 30 21 35 33 41 57 8 29 -21 -17 -21 -16
1 9 14 15 27 25 29 22 7 -7 42 25 42 38 0 5 -8 3 -17 -4 -15 -11 -14 -10 1 9
21 24 31 29 20 10 -4 -7 2 -4 14 6 26 23 30 45 5 25 -16 -13 -17 -12 -4 4 8 9
16 15 19 12 7 -7 32 15 32 27 0 6 -8 4 -17 -3 -16 -13 -17 -12 -4 4 8 9 16 15
19 12 7 -7 32 15 32 27 0 6 -8 4 -17 -3 -16 -11 -16 -11 -5 1 7 8 18 15 24 15
6 0 13 6 16 14 3 9 0 11 -9 6 -8 -5 -11 -4 -6 1 5 5 14 9 19 9 6 0 13 6 16 14
3 9 0 11 -9 6 -8 -5 -11 -4 -6 1 5 5 14 9 19 9 6 0 13 6 16 14 3 9 0 11 -8 6
-9 -5 -11 -4 -6 4 4 6 11 9 16 6 11 -7 55 66 141 230 189 362 322 818 343
1183 l6 92 -42 75 c-39 69 -42 73 -53 52 -6 -12 -17 -22 -25 -22 -12 0 -14 14
-12 71 4 86 -10 102 -27 33 -17 -65 -43 -65 -53 1 -4 25 -13 83 -21 130 -8 47
-13 87 -12 88 11 12 26 -50 37 -147 6 -61 15 -111 19 -111 5 0 16 28 25 61
l17 61 15 -27 c9 -19 13 -48 10 -91 -4 -71 4 -82 23 -29 l13 35 37 -71 c21
-39 44 -78 52 -87 44 -51 48 -84 20 -177 -4 -17 0 -15 25 9 l31 29 30 -24 c26
-21 30 -31 31 -74 l2 -50 16 38 c15 37 17 38 51 32 35 -6 70 -37 71 -62 0 -6
-4 -23 -10 -37 -10 -27 -5 -32 20 -17 23 15 44 -25 41 -78 l-3 -45 20 24 c18
22 21 23 27 8 4 -9 2 -25 -4 -37 -18 -33 -13 -43 14 -25 23 15 25 15 25 0 0
-9 -7 -33 -15 -53 -22 -52 -19 -56 24 -33 l39 19 17 -26 c12 -18 16 -38 12
-67 l-6 -41 18 24 18 23 32 -53 c47 -77 80 -109 112 -109 24 0 29 -6 44 -51 9
-28 20 -48 23 -45 3 3 10 27 17 53 22 85 70 64 89 -40 7 -37 9 -64 3 -60 -5 3
-4 -4 2 -16 13 -23 38 -39 82 -51 28 -8 29 -8 29 28 0 28 -3 33 -10 22 -8 -12
-10 -10 -10 10 0 14 4 31 9 39 11 17 26 -78 17 -107 -4 -10 0 -36 8 -58 8 -21
15 -31 15 -22 1 9 4 25 7 35 5 15 4 16 -6 3 -10 -12 -11 -12 -4 5 4 11 10 38
13 60 l5 40 6 -50 c6 -50 6 -50 19 -23 14 28 31 29 31 1 0 -8 11 -28 25 -45
15 -18 25 -42 25 -61 1 -27 2 -29 11 -14 5 9 7 23 3 30 -5 8 -4 9 4 2 6 -5 12
-37 14 -70 l3 -60 14 43 c8 23 17 42 20 42 17 0 51 -33 51 -50 0 -10 5 -31 11
-47 11 -28 11 -28 22 -5 5 12 15 22 21 22 14 0 82 -69 88 -90 4 -11 9 -7 18
13 l14 28 47 -47 c43 -42 50 -46 65 -33 15 12 18 12 22 -1 3 -8 20 -30 38 -48
43 -43 64 -35 64 23 0 38 6 50 51 99 l51 56 -47 21 c-33 15 -62 20 -100 17
-53 -3 -53 -3 -48 23 4 24 1 27 -39 35 -33 7 -44 14 -46 31 -4 24 -49 40 -65
24 -8 -8 -4 -11 13 -12 14 -1 28 -1 33 0 4 0 7 -4 7 -10 0 -7 -9 -9 -22 -5
-13 3 -28 6 -34 6 -7 0 -17 20 -23 44 -15 59 -29 71 -101 85 -52 10 -60 15
-54 29 10 24 6 62 -8 79 -9 11 -30 14 -81 11 l-69 -3 -16 50 c-14 41 -23 52
-48 60 l-32 10 32 38 32 38 24 -28 c23 -25 23 -26 2 -9 -23 20 -23 20 -50 -7
-19 -20 -22 -27 -11 -27 24 0 59 -44 65 -82 l6 -35 72 5 c77 5 91 -2 98 -47 3
-21 5 -22 16 -9 11 14 0 29 -77 111 -50 51 -123 120 -162 153 -79 65 -171 149
-153 140 7 -3 17 1 24 9 11 13 8 14 -16 10 -24 -4 -38 3 -84 46 -30 28 -50 48
-44 45 7 -3 17 1 24 9 11 14 10 14 -15 5 -37 -14 -55 1 -37 30 17 28 16 30
-16 20 -21 -5 -35 -3 -51 9 l-22 17 21 27 c24 30 19 32 -29 16 -47 -16 -63 2
-31 36 28 30 23 39 -14 25 -15 -5 -39 -10 -53 -10 l-26 0 23 25 c30 32 22 39
-26 26 -21 -6 -39 -9 -40 -8 0 1 2 29 7 62 22 175 16 193 -140 413 -98 137
-101 144 -92 177 8 29 6 36 -12 48 l-21 14 23 32 24 33 -31 -16 c-39 -20 -56
-20 -72 -1 -7 8 -16 13 -20 10 -16 -10 -21 14 -9 37 7 13 13 35 13 50 l1 27
-33 -19 c-40 -24 -55 -25 -72 -5 -10 12 -10 18 1 31 11 13 9 14 -12 9 -38 -9
-56 17 -38 53 22 44 22 45 10 38 -35 -22 -71 -24 -95 -5 -22 17 -23 22 -14 61
12 57 22 64 14 9 -8 -50 12 -82 44 -74 16 4 17 9 8 41 -5 21 -15 42 -20 47 -8
7 -9 4 -4 -8 14 -42 16 -70 1 -33 -8 21 -12 42 -9 48 3 5 0 15 -6 24 -11 12
-18 11 -56 -11 -52 -30 -61 -31 -96 -2 -20 17 -29 37 -38 85 -14 80 -26 111
-52 139 l-21 22 32 50 c28 43 61 81 61 70 0 -3 -17 -29 -39 -59 l-39 -54 20
-27 c20 -27 58 -147 58 -184 0 -12 12 -28 29 -38 29 -17 31 -17 75 5 25 12 46
26 46 31 0 4 -5 5 -12 1 -7 -4 -8 -3 -4 5 4 6 11 9 16 6 9 -5 70 76 70 93 0 5
-19 12 -42 15 -31 4 -48 1 -60 -10 -22 -20 -26 -16 -43 41 -10 32 -11 47 -3
52 7 4 8 2 4 -4 -10 -17 9 -15 23 2 10 12 7 15 -20 18 -30 3 -34 8 -60 72 -16
39 -27 71 -26 71 1 1 41 6 89 12 72 8 91 14 106 33 16 20 21 21 39 9 12 -7 22
-20 22 -28 1 -9 4 -38 7 -66 l6 -49 23 28 23 28 31 -18 c18 -11 35 -32 42 -53
l12 -35 22 28 c18 23 23 25 34 12 6 -8 15 -30 18 -50 7 -42 9 -43 32 -14 22
26 41 17 41 -20 0 -15 4 -34 9 -41 8 -12 11 -9 16 12 4 15 10 27 15 27 12 0
44 -40 37 -46 -4 -4 -9 1 -13 10 -7 18 -24 22 -24 6 0 -6 11 -15 24 -21 19 -9
25 -22 31 -63 6 -50 7 -50 20 -26 8 14 14 37 15 52 0 26 2 27 25 16 14 -6 26
-18 26 -27 1 -9 3 -25 4 -36 1 -11 3 -33 4 -50 l2 -30 15 27 c10 19 19 25 31
21 12 -5 14 -3 8 8 -5 8 -5 11 1 6 10 -10 11 -12 14 -64 2 -38 2 -38 13 -12 7
15 18 24 26 21 9 -3 11 0 6 8 -6 9 -3 9 14 1 25 -14 28 -23 4 -14 -16 6 -17 5
-3 -11 8 -10 23 -39 32 -65 l16 -46 1 38 c1 22 6 37 14 37 8 0 7 4 -3 11 -13
9 -13 10 0 6 8 -2 15 -9 15 -16 0 -11 23 -31 37 -31 4 0 12 25 19 55 11 52 11
58 -15 120 -25 57 -30 63 -43 50 -8 -8 -23 -20 -33 -25 -12 -6 -20 -23 -22
-47 -4 -48 -27 -54 -51 -13 -13 21 -26 30 -44 30 -18 0 -24 -4 -20 -14 3 -8
-1 -17 -9 -20 -17 -6 -18 -1 -4 25 17 31 62 25 83 -11 19 -31 35 -39 34 -17
-1 47 7 64 47 93 l42 31 29 -73 c25 -67 27 -79 17 -127 -5 -28 -8 -54 -5 -57
3 -3 8 0 10 6 2 6 10 20 18 30 13 18 14 16 15 -18 0 -36 -1 -36 -30 -28 -32 9
-39 -1 -20 -30 8 -13 10 -12 10 3 0 19 25 23 35 7 5 -8 11 -8 20 0 22 18 35
-18 25 -70 -13 -67 -12 -79 7 -53 8 13 19 23 23 23 17 0 25 -58 20 -143 -3
-48 -2 -87 1 -87 3 0 13 16 22 35 25 52 37 43 38 -27 l1 -63 14 34 c14 32 16
33 34 16 11 -10 24 -33 30 -51 13 -39 20 -41 45 -14 24 27 36 25 67 -7 25 -27
41 -67 69 -176 l12 -48 22 37 23 37 13 -24 c7 -13 12 -30 11 -36 -2 -7 3 -11
10 -8 7 3 24 -12 38 -32 l25 -37 3 38 c4 46 20 43 45 -7 14 -31 21 -36 40 -32
21 6 24 1 34 -39 5 -25 6 -43 2 -40 -5 3 -6 -2 -3 -10 9 -23 22 -11 22 20 0
57 34 49 47 -11 5 -23 4 -26 -4 -15 -6 8 -11 23 -11 33 0 9 -4 17 -9 17 -12 0
-22 -28 -12 -32 4 -2 29 -32 54 -67 l47 -63 -1 38 c-1 22 -3 31 -6 21 -2 -9
-9 -15 -14 -11 -6 4 -6 11 1 20 9 9 9 21 2 41 l-10 28 -2 -25 c-1 -14 -2 -29
0 -35 1 -7 -2 -7 -9 0 -11 12 -3 65 11 65 5 0 17 -18 25 -40 18 -46 30 -51 39
-16 9 37 40 23 48 -22 7 -47 -1 -55 -9 -8 -8 40 -20 47 -30 15 -10 -29 14 -83
30 -69 7 6 19 8 27 5 10 -4 26 6 42 25 34 41 71 36 81 -10 9 -40 20 -45 39
-15 9 14 21 25 26 25 5 0 19 -27 31 -60 12 -33 25 -60 28 -60 4 0 13 23 20 52
l14 51 30 -71 c17 -40 35 -72 39 -72 4 0 9 30 11 68 l3 67 2 -74 2 -73 -26 6
c-16 4 -33 2 -43 -6 -9 -7 -8 -4 4 7 l21 21 -21 48 -21 48 -9 -39 c-11 -43
-37 -54 -70 -28 -19 15 -19 16 4 4 22 -10 23 -9 16 7 -4 11 -12 33 -17 49 -16
44 -23 48 -38 20 -18 -34 -41 -28 -55 15 -6 19 -18 36 -26 38 -17 3 -69 -51
-69 -72 0 -19 17 -30 22 -15 7 20 48 -9 48 -34 0 -17 2 -19 9 -7 6 8 8 17 5
21 -8 14 16 20 33 9 15 -9 14 -10 -7 -4 l-25 7 28 -26 c15 -14 27 -35 27 -47
0 -26 16 -26 23 0 6 22 30 26 44 8 5 -7 15 -32 22 -55 l12 -42 32 35 c29 31
35 34 59 25 18 -7 28 -20 33 -43 l8 -32 23 29 c28 35 37 30 63 -41 19 -47 20
-48 29 -24 5 14 11 34 13 45 7 35 20 22 48 -45 l26 -64 3 56 c2 47 6 57 23 61
15 4 19 11 15 25 -5 15 7 32 51 71 l57 51 -33 0 c-36 0 -74 -17 -66 -29 2 -5
-3 -15 -13 -22 -15 -13 -16 -12 -3 3 8 11 9 18 3 18 -6 0 -14 -4 -17 -10 -8
-12 -35 -13 -54 -1 -13 8 -13 12 -1 26 12 15 11 16 -14 9 -29 -7 -41 -8 -70
-6 -16 2 -18 8 -13 37 l6 36 -29 -21 c-36 -25 -60 -26 -60 -1 0 11 4 22 9 25
4 3 6 16 4 29 -4 19 5 33 46 68 34 29 46 46 38 51 -23 15 -59 8 -92 -18 -40
-30 -71 -29 -68 4 2 19 -1 21 -22 16 -28 -7 -41 -8 -68 -6 -15 2 -17 8 -11 39
l7 36 -31 -21 c-16 -12 -38 -22 -47 -22 -14 0 -16 6 -10 40 l7 40 -44 -25
c-50 -28 -73 -21 -66 19 6 29 2 30 -57 16 -53 -12 -62 0 -25 35 39 38 38 47
-5 29 -19 -8 -38 -13 -42 -12 -5 1 -18 -3 -30 -10 -18 -10 -28 -9 -60 10 -21
12 -39 23 -41 24 -2 1 10 21 27 45 17 23 29 44 27 47 -3 2 -30 -8 -62 -22 -59
-27 -88 -29 -37 -2 16 8 35 22 42 30 12 14 10 15 -20 10 -19 -4 -42 -11 -51
-15 -9 -5 -26 -9 -37 -9 -24 0 -26 20 -11 85 5 22 7 41 5 43 -2 2 -24 -10 -49
-28 -42 -28 -66 -32 -66 -10 0 5 -5 21 -10 36 -10 26 -11 26 -30 9 -19 -17
-20 -17 -30 9 -16 42 -13 45 40 52 28 4 52 10 55 14 2 4 -22 15 -55 25 -33 10
-57 21 -55 25 3 4 23 10 45 14 54 9 51 24 -6 24 -25 0 -48 3 -51 5 -3 3 15 16
39 29 l43 22 -48 10 c-35 7 -47 14 -45 25 2 9 13 17 26 19 30 4 28 22 -2 22
-24 0 -56 23 -56 40 0 5 13 16 28 24 26 13 31 13 45 -2 10 -9 17 -11 17 -5 0
19 -24 31 -70 34 -52 4 -80 29 -60 54 7 8 18 15 25 15 8 0 16 6 18 13 4 9 6 9
6 0 1 -7 -10 -18 -24 -25 -14 -8 -21 -18 -17 -25 10 -16 111 -33 136 -23 17 7
14 9 -15 9 -21 1 -42 8 -50 17 -11 14 -10 19 9 34 l21 18 -22 6 c-12 3 -45 3
-72 0 -39 -5 -54 -3 -63 9 -11 13 -8 16 18 22 16 4 30 9 30 11 0 2 -15 18 -32
34 l-33 30 43 38 43 37 -63 -5 c-55 -4 -58 -5 -20 -8 24 -2 40 -7 37 -13 -4
-5 -11 -6 -17 -3 -7 5 -8 2 -4 -5 5 -8 0 -14 -13 -18 -11 -3 -19 -9 -16 -13 3
-5 -4 -6 -15 -3 -31 8 -24 -5 13 -22 l32 -15 -30 6 c-16 3 -36 11 -44 19 -11
11 -7 15 23 26 20 7 36 17 36 21 0 7 -9 9 -79 12 -41 2 -35 24 11 38 l43 13
-64 7 c-47 5 -70 13 -85 29 -21 21 -21 21 -1 16 11 -3 34 1 50 8 29 14 29 15
-23 9 -42 -5 -57 -2 -73 12 -27 24 -25 31 24 76 37 35 39 38 17 34 -14 -3 -53
-8 -87 -11 -67 -6 -84 6 -33 24 43 14 37 19 -19 13 -36 -3 -55 0 -76 14 l-28
18 49 23 49 23 -76 -6 c-90 -7 -135 7 -84 25 70 26 71 31 5 25 l-65 -6 25 26
24 27 -52 -22 c-34 -14 -60 -19 -78 -15 l-27 7 29 30 28 29 -59 -20 c-77 -26
-90 -21 -38 16 23 16 42 32 43 35 0 4 -24 1 -52 -6 -29 -7 -75 -15 -103 -19
l-50 -6 45 24 c55 31 53 31 -34 6 -38 -11 -72 -17 -75 -15 -2 3 11 21 30 41
l34 36 -62 -31 c-35 -17 -63 -29 -63 -25 0 3 9 19 21 35 26 37 19 37 -36 -1
-24 -16 -51 -30 -60 -30 -17 0 -17 1 2 47 3 9 -9 6 -37 -6 -55 -25 -67 -20
-62 26 l5 36 -46 -26 c-53 -31 -77 -34 -77 -9 0 9 -14 46 -30 80 l-30 64 20
28 20 28 -30 -11 c-42 -16 -58 1 -34 38 l18 28 -31 -17 c-40 -20 -55 -3 -23
28 l22 21 -11 -25 c-11 -24 -11 -24 3 -6 32 40 11 54 -36 26 -31 -18 -36 -18
-78 -4 -25 9 -79 19 -121 22 l-75 7 45 97 46 96 125 -48 c69 -26 187 -78 262
-114 75 -36 142 -66 148 -66 6 0 182 -69 393 -154 658 -264 929 -347 1103
-334 133 10 376 109 699 285 397 217 741 456 800 557 45 77 24 146 -54 179
-23 10 8 12 178 13 282 1 395 18 516 79 162 81 379 263 587 488 401 437 538
676 526 913 -4 76 -7 86 -47 148 -89 135 -225 205 -491 252 -135 23 -379 14
-561 -22 -160 -31 -488 -107 -724 -169 -481 -125 -1620 -502 -2624 -869 -84
-31 -156 -54 -159 -51 -3 2 -10 1 -16 -4 -27 -22 -174 -65 -330 -97 -237 -49
-246 -50 -275 -25 -13 11 -32 23 -42 26 -36 12 -19 25 31 25 56 0 64 10 23 30
l-28 14 45 7 c45 7 134 11 115 4 -5 -2 -36 -6 -68 -10 -51 -6 -56 -8 -41 -19
26 -19 8 -36 -39 -36 l-42 0 43 -26 44 -26 205 42 c254 52 341 80 370 119 6 9
9 19 7 22 -8 13 25 30 48 26 21 -4 20 -4 -4 -6 -15 0 -30 -6 -33 -11 -4 -7 3
-9 22 -5 15 4 38 8 51 11 18 4 21 8 13 23 -6 10 -7 22 -3 26 4 3 7 12 7 18 0
7 12 13 28 15 18 2 27 9 27 21 0 10 11 28 24 40 18 17 30 20 51 15 26 -6 27
-6 16 17 -12 23 -11 23 3 5 24 -30 19 -39 -17 -32 -40 7 -73 -20 -64 -53 4
-17 -1 -21 -32 -24 -35 -4 -35 -4 7 -5 43 -2 43 -2 37 26 -9 41 13 56 61 43
21 -6 39 -9 41 -7 2 2 -2 15 -8 30 -17 36 -5 43 46 25 l44 -16 -22 42 c-12 24
-23 39 -25 34 -2 -4 2 -17 8 -28 6 -12 7 -21 1 -21 -19 0 -23 53 -5 69 9 9 14
11 11 5 -4 -7 7 -11 29 -12 31 -1 33 0 24 18 -13 23 -22 27 -14 5 4 -8 2 -15
-4 -15 -6 0 -9 8 -8 18 2 9 8 17 14 17 6 0 16 5 23 12 7 7 26 9 46 6 34 -6 35
-5 23 16 -9 18 -9 26 3 39 9 9 15 21 14 27 -1 5 7 11 18 12 19 3 19 3 1 -5
-19 -8 -18 -9 5 -15 37 -10 43 -8 29 8 -11 13 -9 20 9 39 11 12 18 26 14 30
-4 4 3 9 15 13 20 5 22 11 20 72 -2 95 9 121 52 120 8 0 2 -6 -15 -15 -30 -14
-30 -14 -3 -9 15 3 38 9 52 15 25 9 25 9 10 52 -15 42 -15 45 12 103 15 33 28
64 28 69 1 5 8 11 16 13 13 4 13 3 0 -6 -17 -12 -1 -15 25 -4 16 5 15 8 -4 22
-31 23 -19 45 37 69 l47 19 -32 19 c-41 23 -41 29 -3 43 32 11 42 26 12 19
-12 -4 -18 1 -19 14 -1 14 3 18 18 13 10 -3 29 -8 42 -11 19 -6 18 -3 -11 27
-36 37 -37 50 -1 60 16 5 18 7 7 8 -35 2 -18 28 21 35 40 6 51 20 51 60 0 18
17 33 78 69 43 24 84 53 92 63 13 16 13 17 0 9 -9 -5 -8 0 4 13 21 25 36 31
16 7 -8 -10 -9 -15 -2 -15 17 0 30 31 30 72 0 25 -4 36 -11 32 -7 -3 1 6 16
20 17 16 39 26 55 25 25 -1 24 -2 -6 -9 -19 -4 -39 -13 -45 -20 -10 -10 -8
-11 8 -5 11 4 40 11 65 14 46 7 195 81 195 97 1 14 24 50 25 38 0 -5 -5 -15
-12 -22 -9 -9 -9 -12 0 -12 12 0 22 20 36 70 7 24 6 24 -8 6 -9 -11 -16 -15
-16 -9 0 16 49 53 69 53 9 -1 3 -7 -14 -15 l-30 -13 40 6 c73 10 110 27 109
51 -1 11 3 21 8 21 6 0 7 -7 4 -16 -4 -10 -1 -14 6 -12 7 3 13 11 13 18 0 13
-42 31 -100 43 l-30 6 30 -14 c17 -8 24 -14 17 -15 -39 -1 -49 18 -51 97 -1
43 -4 79 -6 82 -6 6 -23 -40 -30 -82 -6 -37 -7 -38 -41 -31 -42 8 -60 -5 -68
-49 -6 -32 -7 -32 -66 -33 -41 0 -65 -5 -78 -17 -23 -21 -29 -21 -35 1 -3 11
-5 7 -6 -10 0 -14 -4 -34 -8 -44 -5 -13 -3 -15 8 -9 8 5 11 5 6 -1 -5 -5 -14
-9 -20 -9 -7 0 -11 -8 -11 -17 2 -21 -23 -12 -29 10 -3 10 -5 3 -6 -15 0 -17
-4 -39 -8 -49 -4 -12 -3 -15 5 -10 7 4 13 17 13 29 1 18 2 18 6 4 3 -10 -1
-25 -8 -33 -15 -18 -92 -57 -83 -42 4 6 -1 8 -15 3 -12 -4 -21 -2 -21 4 0 6
-4 11 -10 11 -5 0 -10 -6 -10 -14 0 -8 -8 -22 -17 -32 -10 -10 -18 -22 -18
-28 0 -6 -10 -12 -23 -12 -24 -1 -62 -30 -62 -47 0 -6 12 0 28 14 26 23 26 23
-2 -9 -31 -33 -43 -41 -30 -19 5 8 2 8 -9 -2 -19 -15 -23 -36 -5 -25 7 4 8 3
4 -5 -4 -6 -10 -9 -14 -7 -16 10 -41 -23 -44 -57 -2 -21 -5 -36 -8 -35 -3 2
-19 -7 -37 -20 -39 -28 -41 -28 -46 6 -3 23 -4 22 -6 -8 0 -20 -6 -41 -13 -48
-7 -7 -8 -12 -4 -12 5 0 3 -7 -4 -15 -7 -8 -16 -13 -20 -10 -4 3 -13 -2 -20
-10 -11 -14 -15 -14 -32 2 -19 17 -19 17 -12 -12 9 -39 14 -46 25 -40 5 3 6
-1 2 -10 -4 -12 -8 -13 -13 -5 -5 8 -9 6 -14 -5 -5 -15 -9 -15 -22 -4 -14 12
-15 8 -9 -34 5 -30 4 -47 -3 -47 -6 0 -13 6 -15 13 -3 6 -6 -23 -6 -67 -1 -72
-2 -77 -18 -65 -15 12 -16 12 -9 -6 5 -11 11 -42 14 -70 l7 -50 6 45 7 45 -2
-45 c-1 -30 -5 -44 -13 -43 -17 4 -60 -67 -75 -122 -7 -25 -18 -45 -24 -45 -7
0 -19 -3 -27 -6 -11 -4 -20 11 -35 58 -19 60 -20 61 -21 26 -1 -21 4 -38 9
-38 6 0 10 -4 10 -9 0 -5 -9 -7 -19 -4 -15 4 -20 16 -23 56 -6 75 3 92 56 107
26 7 49 17 52 22 4 5 -1 26 -10 47 -17 35 -16 38 10 95 20 43 34 60 55 68 34
12 36 19 9 36 -29 18 -15 37 43 61 l51 22 -38 23 -39 23 38 13 38 13 -27 14
c-36 19 -30 24 17 13 l37 -8 -25 30 c-30 35 -28 50 6 58 l24 6 -23 8 c-29 10
-22 18 26 31 32 9 38 16 45 50 7 36 14 44 75 78 100 56 142 98 142 141 0 43
28 66 80 66 25 0 65 16 130 54 83 47 97 59 108 92 15 43 26 54 62 54 14 0 49
11 78 25 72 33 67 52 -18 79 l-65 21 3 68 c2 60 0 67 -16 67 -15 0 -21 -11
-28 -52 l-9 -53 -36 3 c-42 4 -69 -17 -69 -54 0 -22 -4 -24 -47 -24 -30 0 -60
-8 -81 -20 -40 -24 -42 -24 -43 -2 -1 9 -7 -3 -15 -27 -7 -24 -19 -50 -26 -58
-10 -13 -13 -11 -22 9 -9 21 -11 18 -14 -22 -5 -66 -29 -90 -50 -47 l-11 22 0
-26 c-1 -24 -17 -49 -32 -49 -4 0 -10 10 -14 23 -6 20 -8 19 -16 -13 -6 -20
-19 -41 -29 -48 -19 -11 -20 -9 -21 25 0 31 -2 34 -9 18 -5 -11 -9 -30 -9 -43
-1 -13 -14 -34 -30 -48 -17 -14 -40 -41 -52 -61 l-22 -36 -18 21 c-17 21 -17
21 -23 -10 -3 -17 -6 -45 -6 -63 0 -24 -7 -37 -25 -49 -32 -21 -35 -21 -35 12
0 15 -5 34 -10 42 -7 11 -10 -1 -10 -41 0 -64 -9 -79 -27 -47 -12 22 -12 22
-13 -12 0 -49 -16 -63 -47 -43 -23 16 -23 16 -13 -13 6 -15 8 -39 5 -51 -5
-20 -8 -22 -26 -12 -19 10 -20 9 -14 -13 4 -12 9 -30 11 -40 7 -23 -13 -32
-26 -11 -8 14 -9 -3 -4 -67 l6 -85 -22 20 -23 20 8 -20 c4 -11 10 -43 12 -70
4 -44 1 -57 -24 -95 -16 -25 -35 -64 -41 -86 -8 -29 -19 -43 -34 -47 -12 -4
-24 -5 -26 -3 -1 2 -11 32 -21 67 l-18 64 -7 -42 c-3 -24 -9 -61 -12 -82 -3
-22 -12 -42 -20 -45 -8 -3 -14 -2 -14 2 -1 4 -7 29 -14 56 l-13 50 -7 -79 c-4
-43 -10 -83 -13 -88 -3 -6 -16 10 -29 34 l-23 44 -2 -60 c0 -33 -4 -71 -8 -85
-6 -24 -8 -22 -26 20 l-20 45 -5 -95 -5 -95 -19 43 c-11 24 -23 45 -27 48 -5
3 -6 -32 -4 -78 5 -81 4 -82 -9 -43 -8 22 -15 48 -15 58 -1 9 -5 17 -10 17 -4
0 -11 -39 -14 -87 -4 -47 -10 -90 -15 -95 -5 -5 -17 18 -27 53 -20 67 -32 61
-35 -16 -3 -80 -17 -84 -25 -7 -4 40 -11 70 -15 65 -4 -4 -12 -53 -18 -107 -6
-55 -15 -103 -20 -108 -4 -4 -18 23 -31 62 -12 38 -23 70 -25 70 -1 0 -2 -33
-2 -73 1 -56 -3 -79 -19 -102 l-19 -30 -10 28 c-13 36 -22 34 -36 -8 -15 -46
-27 -44 -40 6 -9 32 -9 44 0 49 9 6 9 16 0 42 -10 27 -10 43 -1 68 6 18 11 44
11 56 0 20 7 25 41 30 l40 7 -40 18 c-44 20 -53 44 -20 54 21 7 21 7 1 21 -11
7 -22 26 -24 42 -4 26 -1 28 21 25 l26 -3 -26 10 c-14 6 -31 21 -36 33 -10 22
-9 23 21 20 l31 -2 -32 11 c-18 6 -33 17 -33 24 0 8 0 17 0 22 0 4 15 12 33
19 l32 11 -37 1 c-34 1 -68 21 -68 41 0 5 15 20 33 35 l32 26 -38 -17 c-47
-22 -67 -9 -48 32 15 33 10 38 -22 23 -16 -7 -36 -8 -54 -3 -15 4 -37 8 -48 9
-62 5 -62 4 -35 18 27 15 44 12 20 -3 -13 -8 -12 -10 3 -10 11 0 17 8 17 21 0
16 -4 19 -17 14 -37 -15 -53 -17 -53 -6 0 6 18 14 41 17 46 8 35 24 -17 24
-17 0 -38 8 -48 19 -16 18 -15 20 21 50 42 35 40 39 -12 14 -47 -23 -63 -8
-40 37 l17 33 -24 -7 c-50 -16 -64 -17 -90 -7 -24 9 -26 13 -18 41 10 35 2 38
-33 10 -14 -11 -35 -20 -47 -20 -17 0 -20 4 -15 23 4 12 9 30 12 41 4 15 -3
13 -41 -13 -42 -29 -50 -31 -98 -25 -45 6 -129 41 -176 72 -15 10 85 79 166
113 26 11 62 32 79 45 27 21 33 32 33 65 0 25 5 39 13 39 33 0 177 87 317 191
165 123 252 194 398 326 111 101 199 166 272 203 72 36 87 55 92 115 3 28 7
57 9 65 11 42 -48 14 -252 -122z m-3190 -414 c14 -12 -19 -1 -35 12 -18 14
-18 14 6 3 14 -6 27 -13 29 -15z m4951 -36 c0 -34 -4 -48 -9 -38 -8 14 -3 90
5 90 2 0 4 -24 4 -52z m-4905 22 c13 -6 15 -9 5 -9 -8 0 -22 4 -30 9 -18 12
-2 12 25 0z m4796 -81 c-9 -22 -10 -22 -10 -3 -1 11 2 24 6 27 12 12 14 0 4
-24z m72 14 c-7 -2 -19 -2 -25 0 -7 3 -2 5 12 5 14 0 19 -2 13 -5z m-140 -70
c-7 -2 -19 -2 -25 0 -7 3 -2 5 12 5 14 0 19 -2 13 -5z m-43 -7 c0 -2 -11 -6
-25 -8 -13 -3 -22 -1 -19 3 5 9 44 13 44 5z m305 -16 c-27 -12 -43 -12 -25 0
8 5 22 9 30 9 10 0 8 -3 -5 -9z m-375 -14 c0 -3 -4 -8 -10 -11 -5 -3 -10 -1
-10 4 0 6 5 11 10 11 6 0 10 -2 10 -4z m170 -131 c0 -2 -10 -9 -22 -15 -22
-11 -22 -10 -4 4 21 17 26 19 26 11z m-84 -50 c-11 -8 -27 -15 -35 -15 -9 1
-2 7 14 15 39 18 44 18 21 0z m-4096 -31 c0 -2 -9 0 -20 6 -11 6 -20 13 -20
16 0 2 9 0 20 -6 11 -6 20 -13 20 -16z m-2078 -21 c-6 -2 -10 -9 -6 -14 3 -5
1 -9 -5 -9 -5 0 -12 4 -15 9 -6 9 10 19 29 19 6 0 4 -2 -3 -5z m2198 -49 c0
-2 -13 2 -30 11 -16 9 -30 18 -30 21 0 2 14 -2 30 -11 17 -9 30 -18 30 -21z
m-2071 10 c8 -7 -74 -2 -99 6 -16 5 -2 6 35 3 33 -3 62 -7 64 -9z m2121 -40
c0 -2 -9 0 -20 6 -11 6 -20 13 -20 16 0 2 9 0 20 -6 11 -6 20 -13 20 -16z
m-1984 -82 c-5 -4 -86 36 -86 43 0 3 20 -5 45 -17 24 -12 43 -23 41 -26z
m5676 26 c-6 -7 -25 -22 -44 -32 -39 -23 -32 -13 14 20 38 26 45 29 30 12z
m-124 -81 c-15 -12 -29 -31 -31 -42 -4 -19 -5 -18 -6 2 -1 12 10 30 25 42 36
28 46 27 12 -2z m-192 -22 c-11 -8 -25 -15 -30 -15 -6 1 0 7 14 15 32 19 40
18 16 0z m151 -61 c-3 -3 -12 -4 -19 -1 -8 3 -5 6 6 6 11 1 17 -2 13 -5z
m-5230 -15 c-14 -8 -22 -8 -30 0 -8 8 -3 11 19 11 25 -1 27 -2 11 -11z m5190
5 c-3 -3 -12 -4 -19 -1 -8 3 -5 6 6 6 11 1 17 -2 13 -5z m-40 -46 c-3 -8 -6
-5 -6 6 -1 11 2 17 5 13 3 -3 4 -12 1 -19z m-4797 -57 c-5 -11 -10 -30 -10
-42 0 -19 2 -20 17 -8 14 12 14 10 -1 -13 -10 -16 -20 -28 -22 -28 -2 0 -4 25
-4 55 0 43 3 55 15 55 12 0 13 -4 5 -19z m4573 -10 c2 -10 1 -24 -3 -30 -4 -7
-7 1 -8 18 -1 35 3 40 11 12z m226 5 c10 -12 8 -13 -8 -9 -12 3 -18 9 -15 14
7 12 10 11 23 -5z m-4775 -88 c-24 -67 -20 -100 20 -158 20 -29 36 -61 36 -71
0 -10 8 -23 18 -28 16 -9 20 -2 37 60 9 38 20 68 22 65 3 -3 -3 -36 -13 -75
-16 -60 -22 -71 -40 -71 -16 0 -24 10 -33 43 -7 23 -25 58 -40 77 -15 19 -31
46 -34 60 -8 31 22 140 38 140 2 0 -3 -19 -11 -42z m4513 0 c-3 -7 -5 -2 -5
12 0 14 2 19 5 13 2 -7 2 -19 0 -25z m-4383 -24 c3 -8 2 -12 -4 -9 -6 3 -10
10 -10 16 0 14 7 11 14 -7z m4626 -13 c0 -5 -14 -14 -32 -20 -34 -12 -32 -6 4
15 13 6 24 12 26 13 1 1 2 -3 2 -8z m3137 -17 c-3 -3 -12 -4 -19 -1 -8 3 -5 6
6 6 11 1 17 -2 13 -5z m66 -1 c-7 -2 -21 -2 -30 0 -10 3 -4 5 12 5 17 0 24 -2
18 -5z m-4740 -22 c-22 -18 -22 -19 -3 -24 28 -7 25 -35 -5 -43 -33 -8 -31
-15 6 -37 37 -20 34 -41 -7 -46 -29 -3 -28 -3 16 -25 58 -27 59 -50 4 -54 -41
-3 -41 -3 -53 -56 -10 -43 -9 -58 4 -89 14 -34 14 -37 -4 -47 -11 -5 -29 -10
-41 -10 -34 0 -58 -18 -85 -64 -31 -53 -31 -74 0 -167 38 -111 36 -108 50 -69
14 40 34 45 51 12 11 -21 12 -18 20 35 7 43 14 59 27 61 12 3 19 -5 23 -27 7
-33 24 -33 24 0 0 14 5 19 18 17 9 -2 22 3 28 11 10 13 14 13 28 2 14 -12 16
-10 16 17 0 16 6 35 14 41 14 12 9 -19 -20 -119 l-13 -45 2 49 c1 32 -2 51
-10 53 -10 3 -13 -11 -13 -51 0 -33 -4 -56 -11 -56 -5 0 -9 8 -8 18 7 70 -14
99 -26 35 -11 -60 -19 -62 -30 -9 -6 27 -16 51 -23 54 -7 2 -12 0 -10 -5 4
-18 -15 -113 -23 -113 -5 0 -15 11 -21 25 -13 28 -28 33 -28 10 0 -9 -7 -30
-17 -48 l-16 -32 -34 100 c-42 126 -42 156 0 217 26 39 39 50 68 54 58 10 64
17 49 53 -10 25 -10 42 1 91 14 63 17 66 87 63 27 -2 4 21 -36 35 -49 16 -57
42 -12 42 17 0 30 4 30 9 0 5 -13 14 -30 21 -37 16 -40 47 -5 56 28 7 34 24 9
24 -8 0 -25 5 -37 12 -21 11 -20 12 18 24 53 16 54 16 28 -5z m88 -12 c-7 -16
-10 -18 -10 -7 -1 9 -4 18 -8 21 -5 2 -2 2 5 1 6 -2 12 2 12 8 0 6 2 9 5 6 3
-3 1 -16 -4 -29z m39 -82 c0 -12 0 -11 -24 28 l-17 30 20 -24 c12 -13 21 -28
21 -34z m5132 -59 c41 -57 -1 -25 -52 40 -52 66 -52 66 -11 27 24 -22 52 -52
63 -67z m-192 47 l34 -25 -34 6 c-41 8 -51 14 -25 14 18 0 18 1 -1 15 -10 8
-16 15 -13 15 3 0 20 -11 39 -25z m-232 -2 c-10 -2 -26 -2 -35 0 -10 3 -2 5
17 5 19 0 27 -2 18 -5z m160 0 c-10 -2 -26 -2 -35 0 -10 3 -2 5 17 5 19 0 27
-2 18 -5z m-3587 -40 c-12 -20 -14 -14 -5 12 4 9 9 14 11 11 3 -2 0 -13 -6
-23z m-171 -43 c-6 -11 -13 -20 -16 -20 -2 0 0 9 6 20 6 11 13 20 16 20 2 0 0
-9 -6 -20z m153 5 c-3 -9 -8 -14 -10 -11 -3 3 -2 9 2 15 9 16 15 13 8 -4z
m-1215 -50 c-3 -3 -9 2 -12 12 -6 14 -5 15 5 6 7 -7 10 -15 7 -18z m1222 -10
c0 -5 -5 -3 -10 5 -5 8 -10 20 -10 25 0 6 5 3 10 -5 5 -8 10 -19 10 -25z
m-186 -19 c-3 -15 -8 -25 -11 -23 -2 3 -1 17 3 31 3 15 8 25 11 23 2 -3 1 -17
-3 -31z m196 -11 c0 -8 -4 -15 -10 -15 -5 0 -7 7 -4 15 4 8 8 15 10 15 2 0 4
-7 4 -15z m-290 -11 c0 -3 -7 -12 -15 -20 -8 -9 -15 -11 -15 -5 0 6 -10 1 -21
-10 -16 -16 -23 -18 -29 -9 -5 9 -9 9 -14 1 -4 -6 0 -14 8 -17 9 -3 16 -15 16
-26 0 -16 -5 -19 -25 -16 -13 3 -26 0 -29 -6 -3 -7 -8 -6 -14 3 -16 22 -33 4
-22 -23 11 -29 2 -75 -11 -54 -7 10 -9 9 -9 -4 0 -26 -13 -22 -27 8 -12 26
-12 26 18 20 23 -4 30 -3 26 7 -3 6 -8 19 -11 28 -4 9 1 22 12 33 16 14 24 15
46 5 33 -15 47 -3 19 16 l-22 15 22 24 c13 13 36 26 52 29 17 2 33 5 38 6 4 0
7 -2 7 -5z m-933 -26 c-3 -8 -6 -5 -6 6 -1 11 2 17 5 13 3 -3 4 -12 1 -19z
m970 -4 c-3 -3 -12 -4 -19 -1 -8 3 -5 6 6 6 11 1 17 -2 13 -5z m-970 -66 c-3
-7 -5 -2 -5 12 0 14 2 19 5 13 2 -7 2 -19 0 -25z m1110 -15 c-3 -10 -5 -2 -5
17 0 19 2 27 5 18 2 -10 2 -26 0 -35z m-1110 -55 c-3 -8 -6 -5 -6 6 -1 11 2
17 5 13 3 -3 4 -12 1 -19z m703 -63 c0 -41 -2 -75 -5 -75 -2 0 -14 19 -26 43
-12 23 -24 36 -26 30 -3 -7 3 -23 11 -35 20 -29 20 -48 0 -48 -12 0 -14 -7 -9
-30 10 -46 -11 -36 -23 11 -10 40 -10 41 14 35 30 -8 30 -3 -1 38 -14 18 -25
36 -25 39 0 4 16 7 36 7 31 0 35 3 29 20 -7 21 0 40 16 40 5 0 9 -34 9 -75z
m17 -42 c-2 -21 -4 -6 -4 32 0 39 2 55 4 38 2 -18 2 -50 0 -70z m-737 30 c-11
-17 -11 -17 -6 0 3 10 6 24 7 30 0 9 2 9 5 0 3 -7 0 -20 -6 -30z m5 -63 c-3
-6 0 -10 7 -11 10 0 10 -2 1 -6 -7 -2 -13 -21 -13 -41 0 -20 -5 -44 -10 -52
-9 -13 -9 53 0 145 0 6 5 2 11 -8 5 -9 7 -22 4 -27z m-6985 25 c0 -2 -10 -9
-22 -15 -22 -11 -22 -10 -4 4 21 17 26 19 26 11z m7591 -70 c-2 -41 -9 -77
-17 -86 -8 -9 -11 -20 -7 -25 5 -5 -2 0 -14 10 -23 19 -23 19 -23 -4 0 -13 -3
-21 -6 -17 -3 3 -3 21 1 39 7 32 8 32 17 9 4 -13 11 -22 13 -19 3 3 -2 24 -10
48 -20 56 -19 58 11 52 l26 -5 -16 31 c-21 40 -20 44 7 40 21 -3 22 -7 18 -73z
m399 3 c0 -19 -16 -5 -17 14 -2 18 0 20 7 8 5 -8 10 -18 10 -22z m-8070 18 c0
-2 -34 -29 -76 -61 -42 -32 -112 -89 -155 -127 -44 -38 -79 -65 -79 -60 0 10
114 107 229 194 77 58 81 61 81 54z m7596 -54 c-3 -25 -6 -55 -6 -68 0 -46
-17 -23 -28 38 -12 66 -4 92 25 81 12 -5 14 -16 9 -51z m151 26 c-3 -7 -5 -2
-5 12 0 14 2 19 5 13 2 -7 2 -19 0 -25z m292 19 c-2 -1 -13 -9 -24 -17 -19
-14 -19 -14 -6 3 7 9 18 17 24 17 6 0 8 -1 6 -3z m-352 -74 c-3 -10 -5 -2 -5
17 0 19 2 27 5 18 2 -10 2 -26 0 -35z m-152 -60 c-4 -38 -12 -74 -20 -81 -10
-11 -15 -6 -29 34 -9 26 -14 49 -11 52 2 3 0 13 -6 24 -14 27 -3 38 38 38 l35
0 -7 -67z m22 5 c-3 -7 -5 -2 -5 12 0 14 2 19 5 13 2 -7 2 -19 0 -25z m-107
-107 c-24 -54 -40 -61 -50 -20 l-6 24 -12 -22 c-15 -28 -16 -54 -1 -33 9 13
10 13 6 0 -2 -9 -15 -15 -30 -14 -30 0 -33 -5 -14 -26 10 -12 9 -12 -6 -1 -11
9 -15 21 -12 32 4 11 3 29 0 40 -6 17 -9 19 -17 8 -7 -11 -11 -11 -15 -1 -2 6
-12 12 -21 13 -14 0 -13 2 3 8 10 4 51 6 90 4 l70 -4 -43 27 c-39 24 -42 29
-28 42 8 8 32 18 53 21 35 6 39 5 46 -19 7 -20 3 -40 -13 -79z m-3352 70 c10
-6 10 -10 -3 -21 -8 -7 -15 -10 -15 -7 0 3 -3 12 -6 21 -7 17 3 20 24 7z
m3449 -33 c-3 -7 -5 -2 -5 12 0 14 2 19 5 13 2 -7 2 -19 0 -25z m-7467 9 c0
-2 -10 -12 -22 -23 l-23 -19 19 23 c18 21 26 27 26 19z m7410 -28 c0 -5 -4 -9
-10 -9 -5 0 -10 7 -10 16 0 8 5 12 10 9 6 -3 10 -10 10 -16z m-29 -42 c-10 -9
-11 -8 -5 6 3 10 9 15 12 12 3 -3 0 -11 -7 -18z m-7461 -11 c0 -2 -8 -10 -17
-17 -16 -13 -17 -12 -4 4 13 16 21 21 21 13z m7260 -20 c0 -33 -17 -43 -23
-14 l-4 23 -8 -22 c-9 -28 -25 -30 -25 -3 0 11 -5 20 -11 20 -6 0 -9 -8 -6
-19 3 -14 0 -17 -14 -14 -46 12 -29 33 36 44 22 4 43 7 48 8 4 0 7 -10 7 -23z
m50 -1 c0 -14 -4 -25 -10 -25 -5 0 -10 11 -10 25 0 14 5 25 10 25 6 0 10 -11
10 -25z m-33 -17 c-3 -7 -5 -2 -5 12 0 14 2 19 5 13 2 -7 2 -19 0 -25z m-7569
-73 c0 -16 -2 -15 -8 5 -4 14 -8 36 -8 50 0 22 1 22 8 -5 4 -16 8 -39 8 -50z
m7507 25 c-3 -6 -12 -10 -18 -9 -7 1 -34 0 -62 -1 -47 -2 -48 -3 -22 -13 15
-6 27 -15 27 -19 0 -5 -19 2 -42 14 l-43 22 80 11 c87 12 90 12 80 -5z m-7288
-52 c-3 -8 -6 -5 -6 6 -1 11 2 17 5 13 3 -3 4 -12 1 -19z m4559 -13 c-11 -8
-22 -12 -25 -9 -6 6 19 24 34 24 6 -1 1 -7 -9 -15z m-4569 -102 c-2 -21 -4 -6
-4 32 0 39 2 55 4 38 2 -18 2 -50 0 -70z m4593 43 c0 -2 -13 -6 -29 -8 -17 -2
-28 -1 -25 4 5 8 54 12 54 4z m87 -42 c-3 -3 -12 -4 -19 -1 -8 3 -5 6 6 6 11
1 17 -2 13 -5z m-4670 -86 c-3 -7 -5 -2 -5 12 0 14 2 19 5 13 2 -7 2 -19 0
-25z m4733 -1382 c0 -2 -7 -7 -16 -10 -8 -3 -12 -2 -9 4 6 10 25 14 25 6z
m-40 -20 c0 -2 -7 -7 -16 -10 -8 -3 -12 -2 -9 4 6 10 25 14 25 6z m-80 -41
c-25 -13 -49 -24 -55 -24 -5 0 10 11 35 24 25 13 50 24 55 24 6 0 -10 -11 -35
-24z m-2530 -90 c0 -3 -18 4 -40 15 -22 11 -40 23 -40 25 0 3 18 -4 40 -15 22
-11 40 -23 40 -25z m5250 -6 c6 -10 10 -36 10 -58 0 -47 11 -52 34 -16 19 29
33 31 62 7 22 -18 69 -112 56 -112 -4 0 -15 21 -26 46 -10 25 -30 52 -43 61
-26 17 -26 17 -52 -26 -16 -26 -38 -4 -43 44 -8 64 -15 69 -79 56 -30 -6 -73
-12 -96 -13 -24 -1 -43 -3 -43 -4 0 -1 10 -28 22 -59 21 -56 22 -57 54 -52 43
7 49 -10 16 -45 -27 -30 -25 -66 4 -50 9 5 37 5 67 0 73 -14 74 -22 1 -13 -41
4 -64 3 -68 -4 -12 -18 -21 -13 -33 19 -10 28 -9 32 20 55 l32 25 -40 0 -40 0
-26 68 -26 67 76 6 c42 4 87 11 101 17 30 11 47 6 60 -19z m-2959 -87 c-5 -2
-43 6 -84 17 -40 12 -79 21 -86 21 -27 0 1 -18 54 -34 63 -20 73 -32 18 -21
-97 20 -183 31 -183 24 0 -4 24 -21 53 -38 60 -35 42 -40 -43 -12 -63 21 -76
18 -40 -9 14 -11 20 -20 14 -20 -6 0 -19 9 -29 20 -29 32 -7 43 46 25 l44 -15
-29 23 c-30 25 -29 52 2 43 10 -2 35 -7 56 -11 35 -6 38 -5 27 9 -20 23 9 31
64 17 55 -14 65 -14 65 0 0 5 -4 8 -9 5 -4 -3 -13 6 -20 20 -10 22 -4 19 40
-18 28 -23 46 -44 40 -46z m-2221 52 c0 -2 -9 0 -20 6 -11 6 -20 13 -20 16 0
2 9 0 20 -6 11 -6 20 -13 20 -16z m35 -14 c3 -6 -1 -7 -9 -4 -18 7 -21 14 -7
14 6 0 13 -4 16 -10z m40 -28 c-3 -3 -11 0 -18 7 -9 10 -8 11 6 5 10 -3 15 -9
12 -12z m2650 -40 l64 -7 -21 -45 c-11 -25 -21 -56 -23 -70 -1 -14 -3 -34 -3
-44 -2 -16 -5 -17 -14 -8 -9 9 -10 17 -2 30 7 11 8 26 3 40 -6 15 -5 21 1 17
6 -3 10 -2 10 2 0 5 -9 14 -21 21 -19 12 -20 12 -13 -10 18 -57 15 -66 -27
-66 -21 0 -41 3 -44 8 -3 4 5 6 17 3 22 -4 22 -3 -2 11 -34 21 -43 20 -30 -3
14 -26 13 -28 -11 -34 -14 -4 -18 -10 -13 -19 4 -8 3 -10 -2 -5 -5 5 -9 13 -9
18 0 5 -20 21 -44 36 l-44 26 24 -32 c14 -19 25 -27 30 -20 4 7 9 8 13 1 12
-20 -25 -21 -69 -1 -52 23 -55 40 -13 72 l28 21 24 -23 23 -22 7 23 c3 13 6
35 6 50 0 33 25 50 63 42 15 -3 56 -9 92 -12z m-864 -42 c37 -13 57 -16 70
-10 11 7 20 7 24 0 12 -20 -43 -21 -96 -1 -71 27 -80 26 -44 -5 l30 -25 -62 4
c-35 2 -63 0 -63 -4 0 -8 64 -29 88 -29 17 0 15 -17 -3 -24 -18 -7 -174 5
-179 13 -3 4 26 4 62 0 37 -3 74 -2 82 2 11 6 8 8 -11 9 -29 0 -54 23 -44 39
3 6 25 8 53 4 46 -6 47 -6 29 14 -16 18 -14 33 5 33 4 0 31 -9 59 -20z m-1586
-10 c3 -6 -1 -7 -9 -4 -18 7 -21 14 -7 14 6 0 13 -4 16 -10z m45 -20 c8 -5 11
-10 5 -10 -5 0 -17 5 -25 10 -8 5 -10 10 -5 10 6 0 17 -5 25 -10z m4965 -1
c-22 -4 -56 -7 -75 -7 -32 1 -31 2 10 8 25 4 59 7 75 7 25 1 23 -1 -10 -8z
m-4895 -29 c19 -11 31 -19 25 -19 -5 0 -26 8 -45 19 -19 11 -30 19 -25 19 6 0
26 -8 45 -19z m5135 -16 c14 -9 25 -21 25 -26 0 -5 -12 0 -27 12 l-27 21 -18
-23 c-10 -13 -18 -19 -18 -14 0 9 29 46 37 46 2 0 15 -7 28 -16z m-5070 -14
c3 -6 -1 -7 -9 -4 -18 7 -21 14 -7 14 6 0 13 -4 16 -10z m1198 -32 c-24 -9
-38 -10 -30 -1 4 3 2 12 -4 19 -8 10 -5 11 21 1 25 -10 28 -13 13 -19z m-1153
12 c8 -5 11 -10 5 -10 -5 0 -17 5 -25 10 -8 5 -10 10 -5 10 6 0 17 -5 25 -10z
m1987 -17 c5 3 15 2 22 -2 9 -6 10 -11 2 -15 -6 -4 -11 -1 -11 6 0 10 -2 10
-9 -1 -6 -9 -18 -11 -40 -6 -27 6 -30 9 -20 27 10 18 12 19 29 3 10 -9 23 -15
27 -12z m-1937 -3 c8 -5 11 -10 5 -10 -5 0 -17 5 -25 10 -8 5 -10 10 -5 10 6
0 17 -5 25 -10z m1870 -25 c6 3 10 1 10 -6 0 -8 -13 -9 -45 -5 l-45 7 0 -45
c0 -50 -13 -65 -38 -43 -16 14 -47 15 -60 2 -4 -3 -12 -30 -17 -58 -12 -61
-36 -73 -59 -30 l-14 28 -11 -28 c-6 -16 -11 -41 -11 -57 0 -44 -28 -49 -43
-7 -12 32 -26 17 -29 -30 -4 -56 -24 -68 -39 -23 -14 40 -24 30 -43 -44 -18
-68 -20 -71 -41 -63 -9 4 -15 19 -15 36 0 23 -4 29 -15 25 -8 -4 -18 -17 -21
-30 -3 -13 -13 -29 -21 -36 -12 -10 -18 -9 -28 6 -15 20 -46 18 -53 -4 -5 -13
-3 -13 14 0 19 14 19 14 0 -7 -10 -13 -22 -20 -26 -18 -4 3 -13 -1 -19 -9 -6
-7 -30 -17 -54 -20 l-42 -7 29 -16 c21 -11 25 -18 17 -26 -18 -18 -13 -31 7
-16 14 11 15 11 4 -1 -8 -9 -27 -13 -55 -11 -46 3 -47 -8 -1 -13 27 -3 38 -21
12 -21 -6 0 -13 -6 -16 -14 -3 -9 0 -11 9 -6 8 5 5 -1 -5 -13 -11 -12 -26 -22
-35 -21 -10 0 -7 4 8 10 13 5 22 12 19 14 -3 3 -18 1 -33 -5 -36 -14 -43 -5
-51 55 l-5 50 26 -30 26 -30 -7 30 c-4 17 -10 39 -15 51 -5 14 2 46 19 95 14
41 27 76 28 78 2 3 45 -22 87 -50 5 -4 12 -22 16 -40 l8 -34 13 27 c16 33 76
45 86 16 7 -24 20 -15 27 20 4 17 16 33 31 40 26 11 26 11 26 -28 0 -58 15
-49 34 19 18 66 41 94 57 70 5 -8 9 -22 9 -31 0 -10 5 -18 10 -18 6 0 10 22
10 49 0 62 22 75 47 28 l18 -32 3 52 c2 39 8 55 21 63 15 8 22 5 35 -15 24
-37 33 -31 40 26 5 37 14 57 34 74 l26 22 19 -23 c27 -35 37 -30 37 18 0 25 7
49 17 60 15 17 18 17 40 3 13 -9 28 -13 33 -10z m-1820 5 c8 -5 11 -10 5 -10
-5 0 -17 5 -25 10 -8 5 -10 10 -5 10 6 0 17 -5 25 -10z m975 0 c-27 -12 -43
-12 -25 0 8 5 22 9 30 9 10 0 8 -3 -5 -9z m-925 -20 c8 -5 11 -10 5 -10 -5 0
-17 5 -25 10 -8 5 -10 10 -5 10 6 0 17 -5 25 -10z m870 0 c-8 -5 -19 -10 -25
-10 -5 0 -3 5 5 10 8 5 20 10 25 10 6 0 3 -5 -5 -10z m953 3 c-7 -2 -19 -2
-25 0 -7 3 -2 5 12 5 14 0 19 -2 13 -5z m2744 -25 c-3 -8 -6 -5 -6 6 -1 11 2
17 5 13 3 -3 4 -12 1 -19z m-4507 2 c18 -12 2 -12 -25 0 -13 6 -15 9 -5 9 8 0
22 -4 30 -9z m760 0 c-8 -5 -19 -10 -25 -10 -5 0 -3 5 5 10 8 5 20 10 25 10 6
0 3 -5 -5 -10z m937 4 c-3 -3 -12 -4 -19 -1 -8 3 -5 6 6 6 11 1 17 -2 13 -5z
m-1637 -24 c18 -12 2 -12 -25 0 -13 6 -15 9 -5 9 8 0 22 -4 30 -9z m650 0 c-8
-5 -22 -9 -30 -9 -10 0 -8 3 5 9 27 12 43 12 25 0z m-590 -20 c18 -12 2 -12
-25 0 -13 6 -15 9 -5 9 8 0 22 -4 30 -9z m530 0 c-8 -5 -22 -9 -30 -9 -10 0
-8 3 5 9 27 12 43 12 25 0z m-65 -20 c-11 -5 -27 -9 -35 -9 -9 0 -8 4 5 9 11
5 27 9 35 9 9 0 8 -4 -5 -9z m3953 -15 c-3 -3 -9 2 -12 12 -6 14 -5 15 5 6 7
-7 10 -15 7 -18z m-4331 9 c-3 -3 -12 -4 -19 -1 -8 3 -5 6 6 6 11 1 17 -2 13
-5z m73 -14 c20 -6 21 -8 5 -8 -11 0 -31 4 -45 8 -20 6 -21 8 -5 8 11 0 31 -4
45 -8z m230 0 c-14 -4 -34 -8 -45 -8 -16 0 -15 2 5 8 14 4 34 8 45 8 16 0 15
-2 -5 -8z m-112 -17 c-10 -2 -28 -2 -40 0 -13 2 -5 4 17 4 22 1 32 -1 23 -4z
m4287 -34 c-5 -6 -55 0 -55 7 0 3 13 3 29 2 16 -1 28 -5 26 -9z m-3015 -183
c0 -2 -8 -10 -17 -17 -16 -13 -17 -12 -4 4 13 16 21 21 21 13z m-92 -76 c-7
-11 -17 -20 -22 -20 -5 0 -1 9 9 20 10 11 20 20 22 20 2 0 -2 -9 -9 -20z
m-555 -47 c-7 -2 -21 -2 -30 0 -10 3 -4 5 12 5 17 0 24 -2 18 -5z m128 -70
c-12 -20 -14 -14 -5 12 4 9 9 14 11 11 3 -2 0 -13 -6 -23z m3706 1 c-3 -3 -12
-4 -19 -1 -8 3 -5 6 6 6 11 1 17 -2 13 -5z m-3982 -87 c5 -2 -3 -2 -20 -1
l-30 4 33 -15 c17 -8 32 -21 32 -28 0 -8 4 -7 11 3 7 10 9 11 7 2 -2 -8 -8
-14 -13 -14 -20 0 -45 -19 -45 -34 0 -28 -30 -74 -49 -74 -25 0 -32 23 -19 60
l10 31 26 -23 25 -23 -7 30 c-16 68 -18 86 -11 112 l7 28 16 -27 c9 -15 21
-29 27 -31z m256 26 c-12 -20 -14 -14 -5 12 4 9 9 14 11 11 3 -2 0 -13 -6 -23z
m-16 -60 c0 -22 -7 -45 -17 -55 -10 -10 -18 -14 -18 -9 0 6 5 13 10 16 6 3 10
17 10 30 0 21 9 55 14 55 1 0 2 -17 1 -37z m3805 -25 c0 -5 5 -8 10 -8 7 0 7
6 1 19 -8 14 -7 20 4 24 9 4 12 1 8 -9 -3 -8 0 -21 7 -29 10 -12 9 -15 -8 -15
-18 0 -72 58 -72 77 1 10 50 -49 50 -59z m-4069 -81 c-10 -9 -11 -8 -5 6 3 10
9 15 12 12 3 -3 0 -11 -7 -18z m-42 -34 c-14 -3 -14 -12 -4 -74 11 -62 10 -71
-3 -77 -9 -3 -18 0 -20 6 -2 7 -13 10 -28 6 -22 -6 -24 -4 -24 35 0 23 4 41 8
41 5 0 18 -18 31 -40 32 -56 42 -50 25 18 -19 81 -18 92 9 91 14 -1 16 -3 6
-6z m247 -48 c1 -45 -11 -65 -13 -22 -1 22 5 67 10 67 1 0 2 -20 3 -45z m-239
3 c-3 -8 -6 -5 -6 6 -1 11 2 17 5 13 3 -3 4 -12 1 -19z m-105 -108 c9 -27 12
-29 22 -14 7 9 19 14 27 11 10 -4 8 -6 -5 -6 -20 -1 -20 -1 0 -15 23 -18 12
-33 -31 -39 l-30 -4 33 -2 c49 -2 39 -31 -17 -52 l-45 -16 47 -7 c42 -7 47
-10 47 -33 0 -15 -7 -35 -17 -45 -15 -17 -17 -17 -35 -2 -17 16 -18 16 -18 -8
0 -13 -7 -33 -15 -44 -14 -19 -15 -19 -54 4 -49 27 -54 27 -46 2 12 -38 14
-110 3 -116 -6 -4 -9 -3 -6 2 4 5 -23 16 -58 24 -35 9 -64 15 -64 13 0 -9 78
-39 94 -35 12 2 16 0 11 -7 -3 -6 -10 -9 -15 -6 -4 3 -10 1 -12 -5 -2 -6 -29
0 -67 15 -36 14 -67 25 -69 25 -2 0 12 -19 32 -42 25 -29 33 -45 26 -53 -5 -7
-7 -14 -4 -17 3 -3 0 -9 -7 -14 -8 -5 -10 -3 -4 6 5 8 3 11 -6 8 -8 -3 -14
-10 -14 -16 0 -5 -4 -14 -9 -19 -5 -4 -6 -3 -2 4 5 9 -1 11 -21 7 -15 -3 -48
2 -72 10 -58 21 -59 21 -26 -14 37 -38 25 -50 -38 -40 l-49 7 6 -28 c5 -24 2
-30 -19 -35 -14 -4 -33 0 -47 10 -34 24 -41 20 -34 -19 6 -32 5 -35 -16 -35
-13 0 -34 7 -47 16 -23 17 -23 16 -16 -14 6 -28 4 -32 -19 -38 -15 -3 -40 -4
-56 -2 -24 4 -27 2 -18 -9 12 -15 12 -15 -17 -32 -15 -9 -16 -11 -2 -7 24 7
21 -1 -4 -15 -12 -6 -19 -7 -15 -1 3 5 -5 17 -19 26 -35 23 -45 19 -15 -5 l25
-21 -25 14 c-14 9 -25 22 -25 29 0 9 -13 14 -38 14 -42 0 -43 4 -21 68 17 51
32 58 52 27 18 -29 29 -25 36 14 5 26 13 36 34 41 23 6 32 1 58 -30 l31 -38
14 59 c16 67 38 81 59 37 l13 -28 10 40 c9 36 22 54 38 55 3 0 10 -12 16 -27
l11 -28 1 35 c2 55 34 80 50 38 7 -20 9 -18 15 15 8 41 22 55 39 38 18 -18 24
-13 31 21 3 17 12 38 19 46 10 13 14 9 23 -23 l10 -37 44 67 44 67 26 -33 27
-32 18 99 c13 78 23 105 43 127 30 32 52 34 77 7 22 -24 31 -19 39 22 5 27 31
68 43 68 2 0 9 -14 15 -30z m305 -51 c1 -71 0 -78 -13 -62 -14 17 -15 17 -29
-1 -8 -11 -15 -15 -15 -9 0 16 28 36 40 28 7 -4 8 6 4 34 -5 33 0 91 9 91 1 0
3 -36 4 -81z m-240 -146 c-3 -10 -5 -2 -5 17 0 19 2 27 5 18 2 -10 2 -26 0
-35z m115 -47 c-7 -27 -9 -27 -22 -10 -8 10 -10 15 -3 11 7 -4 14 1 18 14 10
30 16 18 7 -15z m-185 -8 c-3 -8 -6 -5 -6 6 -1 11 2 17 5 13 3 -3 4 -12 1 -19z
m-51 -56 c-2 -2 -14 1 -25 8 -12 6 -26 8 -31 5 -6 -3 -10 1 -10 9 0 14 4 14
35 -1 19 -9 33 -18 31 -21z m4091 -114 c-2 -24 -4 -7 -4 37 0 44 2 63 4 43 2
-21 2 -57 0 -80z m-4140 70 c-3 -7 -5 -2 -5 12 0 14 2 19 5 13 2 -7 2 -19 0
-25z m127 -27 c-4 -23 -9 -40 -11 -37 -3 3 -2 23 2 46 4 23 9 39 11 37 3 -2 2
-23 -2 -46z m5786 9 c18 -12 2 -12 -25 0 -13 6 -15 9 -5 9 8 0 22 -4 30 -9z
m-6055 -30 c11 -5 14 -9 7 -9 -7 -1 -10 -5 -7 -11 10 -17 -1 -11 -20 10 -19
21 -13 24 20 10z m6388 -7 c-7 -2 -19 -2 -25 0 -7 3 -2 5 12 5 14 0 19 -2 13
-5z m-6333 -13 c8 -5 11 -10 5 -10 -5 0 -17 5 -25 10 -8 5 -10 10 -5 10 6 0
17 -5 25 -10z m6630 -3 c0 -2 -19 -21 -42 -42 l-43 -40 35 39 c23 25 29 37 17
33 -11 -4 -16 -3 -12 3 5 9 45 15 45 7z m-530 -28 c0 -6 -4 -7 -10 -4 -5 3
-10 11 -10 16 0 6 5 7 10 4 6 -3 10 -11 10 -16z m360 13 c0 -4 -12 -8 -27 -9
-24 -1 -25 -1 -8 7 26 11 35 12 35 2z m-283 -44 c-3 -8 -6 -5 -6 6 -1 11 2 17
5 13 3 -3 4 -12 1 -19z m328 4 c-3 -3 -11 0 -18 7 -9 10 -8 11 6 5 10 -3 15
-9 12 -12z m-6704 -30 c-7 -2 -18 1 -23 6 -8 8 -4 9 13 5 13 -4 18 -8 10 -11z
m1572 -7 c-3 -9 -8 -14 -10 -11 -3 3 -2 9 2 15 9 16 15 13 8 -4z m4976 -4
c-25 -20 -39 -19 -39 2 0 8 3 8 9 -1 6 -10 10 -10 21 3 7 8 17 15 22 15 6 0 0
-9 -13 -19z m-2134 -46 c-4 -25 -9 -44 -12 -41 -2 2 -1 25 2 51 4 25 9 44 12
41 2 -2 1 -25 -2 -51z m1980 46 c3 -5 1 -12 -5 -16 -5 -3 -10 1 -10 9 0 18 6
21 15 7z m-6195 -43 c0 -7 -5 -6 -13 1 -8 6 -18 7 -22 3 -5 -4 -5 -2 -1 5 8
14 36 6 36 -9z m1351 -5 c-12 -20 -14 -14 -5 12 4 9 9 14 11 11 3 -2 0 -13 -6
-23z m-1618 10 c-7 -2 -21 -2 -30 0 -10 3 -4 5 12 5 17 0 24 -2 18 -5z m6688
-2 c7 12 9 11 9 -1 0 -8 -5 -22 -10 -30 -6 -9 -10 -10 -10 -3 0 6 -2 17 -3 25
-2 7 -2 9 1 4 2 -4 8 -2 13 5z m-6644 -7 c-3 -3 -12 -4 -19 -1 -8 3 -5 6 6 6
11 1 17 -2 13 -5z m6733 -11 c0 -7 -4 -13 -9 -13 -5 0 -11 6 -14 13 -3 8 1 14
9 14 8 0 14 -6 14 -14z m-6880 -29 c16 -10 18 -13 6 -9 -11 3 -24 0 -29 -7 -6
-10 -7 -8 -4 4 3 9 1 19 -6 22 -7 2 -7 5 -2 5 6 0 21 -7 35 -15z m1703 1 c-3
-9 -8 -14 -10 -11 -3 3 -2 9 2 15 9 16 15 13 8 -4z m-1483 -29 c0 -2 -7 -7
-16 -10 -8 -3 -12 -2 -9 4 6 10 25 14 25 6z m1461 -19 c-10 -9 -11 -8 -5 6 3
10 9 15 12 12 3 -3 0 -11 -7 -18z m-1765 1 c4 -6 3 -8 -4 -4 -5 3 -13 0 -15
-6 -3 -8 -6 -6 -6 5 -1 19 14 23 25 5z m4648 -32 c-3 -21 -8 -35 -11 -32 -2 2
-1 20 3 40 3 21 8 35 11 32 2 -2 1 -20 -3 -40z m-4604 30 c0 -2 -7 -7 -16 -10
-8 -3 -12 -2 -9 4 6 10 25 14 25 6z m1707 -30 c-3 -8 -2 -29 3 -46 7 -25 6
-29 -3 -21 -7 5 -12 23 -11 38 2 39 3 43 10 43 3 0 4 -6 1 -14z m-2005 -13
c-6 -2 -9 -10 -5 -16 4 -7 -1 -6 -10 2 -22 18 -21 21 6 20 12 0 16 -3 9 -6z
m158 3 c0 -3 -4 -8 -10 -11 -5 -3 -10 -1 -10 4 0 6 5 11 10 11 6 0 10 -2 10
-4z m209 -30 c-2 -2 -17 -6 -34 -10 -22 -5 -26 -4 -15 4 14 9 59 15 49 6z m58
-18 c-3 -8 -6 -5 -6 6 -1 11 2 17 5 13 3 -3 4 -12 1 -19z m-7 -30 c0 -6 -6 -5
-15 2 -8 7 -15 14 -15 16 0 2 7 1 15 -2 8 -4 15 -11 15 -16z m4464 -17 c-4
-17 -9 -30 -11 -27 -3 2 -2 19 2 36 9 41 17 33 9 -9z m-4594 -1 c0 -5 -2 -10
-4 -10 -3 0 -8 5 -11 10 -3 6 -1 10 4 10 6 0 11 -4 11 -10z m-215 -10 c3 -5 1
-10 -4 -10 -6 0 -11 5 -11 10 0 6 2 10 4 10 3 0 8 -4 11 -10z m41 -51 l-15
-34 -1 33 c0 20 4 31 10 27 6 -3 10 -1 10 6 0 7 2 10 5 7 3 -3 -1 -20 -9 -39z
m84 20 c0 -14 -17 -10 -23 5 -4 10 -1 13 9 9 7 -3 14 -9 14 -14z m1474 2 c3
-5 -2 -17 -12 -28 -9 -10 -13 -13 -8 -6 4 7 6 20 2 28 -6 16 9 21 18 6z m3190
-40 c-4 -17 -9 -30 -11 -27 -3 2 -2 19 2 36 9 41 17 33 9 -9z m-3234 -16 c0
-12 -19 -12 -23 0 -4 9 -1 12 9 8 7 -3 14 -7 14 -8z m177 -37 c-3 -7 -5 -2 -5
12 0 14 2 19 5 13 2 -7 2 -19 0 -25z m4143 7 c13 -14 21 -25 18 -25 -2 0 -15
11 -28 25 -13 14 -21 25 -18 25 2 0 15 -11 28 -25z m-1106 -29 c-3 -15 -8 -25
-11 -23 -2 3 -1 17 3 31 3 15 8 25 11 23 2 -3 1 -17 -3 -31z m-3274 0 c0 -3
-4 -8 -10 -11 -5 -3 -10 -1 -10 4 0 6 5 11 10 11 6 0 10 -2 10 -4z m192 -56
c-2 -16 -8 -30 -13 -30 -5 0 -6 7 -4 15 3 8 7 22 10 30 8 25 12 17 7 -15z
m3059 -17 c-12 -20 -14 -14 -5 12 4 9 9 14 11 11 3 -2 0 -13 -6 -23z m1319
-90 c0 -8 -9 0 -50 45 l-45 47 48 -45 c26 -24 47 -45 47 -47z m-4414 37 c0
-12 -4 -16 -9 -11 -5 5 -6 14 -3 20 10 15 12 14 12 -9z m3075 -11 c-5 -13 -10
-19 -10 -12 -1 15 10 45 15 40 3 -2 0 -15 -5 -28z m-20 -60 c-5 -13 -10 -19
-10 -12 -1 15 10 45 15 40 3 -2 0 -15 -5 -28z m-3071 -24 c0 -5 -5 -3 -10 5
-5 8 -10 20 -10 25 0 6 5 3 10 -5 5 -8 10 -19 10 -25z m4157 -54 c-3 -19 -5
-15 -6 14 l-3 40 -13 -35 c-11 -30 -11 -37 3 -47 9 -7 11 -13 5 -13 -25 0 -30
26 -15 80 l16 55 8 -34 c5 -18 7 -45 5 -60z m-1106 22 c-12 -20 -14 -14 -5 12
4 9 9 14 11 11 3 -2 0 -13 -6 -23z m-20 -50 c-12 -20 -14 -14 -5 12 4 9 9 14
11 11 3 -2 0 -13 -6 -23z m-3114 -15 c-3 -8 -6 -5 -6 6 -1 11 2 17 5 13 3 -3
4 -12 1 -19z m3094 -35 c-12 -20 -14 -14 -5 12 4 9 9 14 11 11 3 -2 0 -13 -6
-23z m-3118 2 c-3 -9 -8 -14 -10 -11 -3 3 -2 9 2 15 9 16 15 13 8 -4z m-32
-63 c-11 -21 -28 -45 -38 -52 -17 -14 -17 -14 -2 5 9 11 24 35 33 53 9 17 19
32 21 32 3 0 -3 -17 -14 -38z m3123 -11 c-9 -23 -18 -40 -20 -38 -2 2 4 22 13
45 9 23 18 40 20 38 2 -2 -4 -22 -13 -45z m-3187 -57 c-3 -3 -12 -4 -19 -1 -8
3 -5 6 6 6 11 1 17 -2 13 -5z m3156 -9 c-3 -9 -8 -14 -10 -11 -3 3 -2 9 2 15
9 16 15 13 8 -4z m-3418 -2 c-11 -3 -23 -10 -27 -17 -5 -7 -8 -7 -8 0 0 16 11
24 34 23 20 -1 20 -1 1 -6z m217 -30 c-3 -16 -7 -22 -10 -15 -4 13 4 42 11 42
2 0 2 -12 -1 -27z m-121 -35 c-4 -35 -6 -38 -9 -15 -3 26 3 57 10 57 2 0 1
-19 -1 -42z m-134 0 c-3 -7 -5 -2 -5 12 0 14 2 19 5 13 2 -7 2 -19 0 -25z m73
-28 c0 -5 -5 -10 -11 -10 -5 0 -7 5 -4 10 3 6 8 10 11 10 2 0 4 -4 4 -10z
m-168 -27 l-54 -4 4 -39 c2 -21 0 -36 -4 -34 -5 3 -8 23 -8 45 l0 39 58 -2 57
-2 -53 -3z m3471 -38 c-3 -9 -8 -14 -10 -11 -3 3 -2 9 2 15 9 16 15 13 8 -4z
m-28 -55 c-9 -16 -18 -30 -21 -30 -2 0 2 14 11 30 9 17 18 30 21 30 2 0 -2
-13 -11 -30z m-3518 -16 c-3 -3 -12 -4 -19 -1 -8 3 -5 6 6 6 11 1 17 -2 13 -5z
m120 -16 c-3 -8 -6 -5 -6 6 -1 11 2 17 5 13 3 -3 4 -12 1 -19z m-160 6 c-3 -3
-12 -4 -19 -1 -8 3 -5 6 6 6 11 1 17 -2 13 -5z m3523 -34 c-6 -11 -13 -20 -16
-20 -2 0 0 9 6 20 6 11 13 20 16 20 2 0 0 -9 -6 -20z m-3600 -67 c-11 -17 -11
-17 -6 0 3 10 7 28 7 40 2 22 2 22 6 0 2 -12 -1 -30 -7 -40z m3570 17 c-6 -11
-13 -20 -16 -20 -2 0 0 9 6 20 6 11 13 20 16 20 2 0 0 -9 -6 -20z m-3600 -50
c-8 -5 -19 -10 -25 -10 -5 0 -3 5 5 10 8 5 20 10 25 10 6 0 3 -5 -5 -10z
m-105 -54 c0 -13 -3 -22 -7 -19 -5 2 -8 13 -8 24 0 10 3 19 8 19 4 0 7 -11 7
-24z m185 -29 c0 -2 -15 -16 -32 -33 l-33 -29 29 33 c28 30 36 37 36 29z
m-305 -17 c-3 -5 -12 -10 -18 -10 -7 0 -6 4 3 10 19 12 23 12 15 0z m89 1 c4
-5 -3 -7 -14 -4 -23 6 -26 13 -6 13 8 0 17 -4 20 -9z m-42 -158 c2 -19 0 -36
-4 -39 -4 -3 -8 12 -8 32 0 29 -8 47 -32 74 l-33 35 37 -34 c25 -23 37 -44 40
-68z m31 17 c-3 -11 -10 -23 -16 -27 -5 -3 -8 -2 -5 3 3 5 8 17 11 27 9 24 16
22 10 -3z m2538 -267 c13 -16 12 -17 -3 -4 -17 13 -22 21 -14 21 2 0 10 -8 17
-17z m649 -48 c0 -6 -97 -55 -107 -55 -4 1 17 14 47 30 61 32 60 32 60 25z
m-540 -31 c0 -2 -9 0 -20 6 -11 6 -20 13 -20 16 0 2 9 0 20 -6 11 -6 20 -13
20 -16z m35 -14 c3 -6 -1 -7 -9 -4 -18 7 -21 14 -7 14 6 0 13 -4 16 -10z m45
-20 c8 -5 11 -10 5 -10 -5 0 -17 5 -25 10 -8 5 -10 10 -5 10 6 0 17 -5 25 -10z
m320 0 c-8 -5 -19 -10 -25 -10 -5 0 -3 5 5 10 8 5 20 10 25 10 6 0 3 -5 -5
-10z m-225 -20 c27 -7 27 -8 5 -8 -14 0 -36 4 -50 8 -20 6 -21 8 -5 8 11 0 34
-4 50 -8z m155 0 c-14 -4 -36 -8 -50 -8 -22 0 -22 1 5 8 17 4 39 8 50 8 16 0
15 -2 -5 -8z"/>
<path d="M8137 7844 c-15 -8 -25 -19 -22 -24 3 -5 0 -12 -6 -16 -8 -5 -9 -3
-4 6 5 8 3 11 -6 8 -8 -3 -14 -10 -14 -15 0 -6 -4 -15 -9 -20 -5 -5 -6 -3 -2
5 4 6 3 12 -2 12 -12 0 -33 -25 -27 -32 3 -3 -3 -11 -12 -19 -16 -13 -17 -12
-4 4 7 9 11 17 7 17 -15 0 -115 -73 -111 -81 3 -4 0 -11 -6 -15 -8 -4 -9 -3
-5 4 9 15 1 15 -25 1 -11 -5 -17 -14 -14 -19 3 -5 0 -12 -6 -16 -8 -5 -9 -3
-4 6 5 8 3 11 -6 8 -8 -3 -14 -10 -14 -15 0 -6 -4 -15 -9 -20 -5 -5 -6 -2 -1
6 5 9 3 12 -6 9 -8 -3 -14 -10 -14 -15 0 -6 -4 -15 -9 -20 -5 -5 -6 -2 -1 6 5
9 3 12 -6 9 -8 -3 -14 -10 -14 -16 0 -5 -4 -14 -9 -19 -5 -5 -6 -3 -2 5 4 6 3
12 -2 12 -12 0 -33 -25 -27 -32 3 -3 -3 -11 -12 -19 -16 -13 -17 -12 -4 4 7 9
9 17 3 17 -12 0 -34 -25 -27 -32 3 -3 -3 -11 -12 -19 -16 -13 -17 -12 -4 4 7
9 9 17 4 17 -13 0 -45 -35 -38 -42 3 -2 -7 -15 -23 -29 l-27 -24 24 28 c14 15
20 27 15 27 -12 0 -260 -251 -257 -261 1 -3 -8 -15 -20 -25 -18 -16 -20 -16
-8 -1 7 9 9 17 3 17 -12 0 -34 -25 -27 -32 3 -3 -3 -11 -12 -19 -16 -13 -17
-12 -4 4 7 9 9 17 3 17 -11 0 -30 -21 -30 -33 0 -5 -4 -12 -8 -15 -4 -4 -4 -1
1 7 5 9 3 12 -6 9 -8 -3 -13 -10 -12 -16 1 -5 -5 -16 -15 -24 -15 -12 -16 -11
-3 5 7 9 9 17 3 17 -11 0 -39 -31 -34 -37 2 -3 0 -8 -4 -11 -4 -4 -4 -1 1 7 5
9 3 12 -6 9 -8 -3 -13 -10 -12 -16 1 -5 -5 -16 -15 -24 -15 -12 -16 -11 -3 5
7 9 9 17 3 17 -11 0 -30 -21 -30 -33 0 -5 -4 -12 -8 -15 -4 -4 -4 -1 1 7 5 9
3 12 -6 9 -8 -3 -13 -11 -11 -17 2 -11 -55 -51 -73 -51 -5 1 7 10 28 21 22 11
37 22 35 25 -3 2 -22 -5 -43 -16 -22 -11 -48 -20 -58 -20 -25 0 -79 -29 -72
-39 2 -5 -3 -15 -13 -22 -15 -13 -16 -12 -3 4 25 32 -4 17 -74 -39 -38 -30
-76 -61 -84 -69 -25 -25 32 -11 74 18 46 31 58 27 49 -19 -7 -41 -4 -41 43 -9
41 27 57 24 50 -11 -6 -31 -1 -30 56 6 45 28 62 58 55 94 -2 12 14 24 62 45
81 34 152 79 145 91 -3 5 0 12 6 16 8 4 9 3 5 -4 -4 -7 -3 -12 2 -12 11 0 39
31 34 37 -2 3 0 8 4 11 4 4 4 1 -1 -7 -5 -9 -3 -12 6 -9 8 3 13 10 12 16 -1 5
5 16 15 24 15 12 16 11 3 -4 -7 -10 -9 -18 -3 -18 12 0 34 25 27 32 -3 3 3 11
12 19 16 13 17 12 4 -3 -7 -10 -9 -18 -3 -18 13 0 33 25 26 32 -3 3 9 16 27
29 18 13 29 18 25 11 -4 -7 -3 -12 2 -12 12 0 33 25 27 32 -3 3 3 11 12 19 16
13 17 12 4 -3 -7 -10 -9 -18 -3 -18 12 0 34 25 27 32 -3 3 19 24 47 47 l53 43
-50 -46 c-27 -25 -45 -46 -40 -46 6 0 35 23 65 51 30 28 48 47 40 43 -8 -4 1
9 19 29 19 21 37 37 40 37 3 0 -8 -13 -24 -30 -16 -16 -24 -30 -19 -30 5 0 34
26 64 57 30 31 46 51 35 43 -11 -8 -7 0 9 18 17 18 32 32 34 32 3 0 -3 -9 -13
-20 -10 -11 -14 -20 -9 -20 6 0 26 17 45 37 21 23 25 30 9 18 l-25 -20 24 28
c24 27 38 36 26 17 -3 -5 -2 -10 3 -10 12 0 33 25 27 32 -3 3 5 13 17 24 18
15 20 16 9 2 -7 -10 -9 -18 -3 -18 12 0 34 25 27 32 -3 3 3 11 12 19 16 13 17
12 4 -3 -18 -23 -6 -23 27 1 15 10 51 30 79 45 64 32 79 54 87 129 7 64 -2 71
-57 41z m53 -4 c0 -5 -2 -10 -4 -10 -3 0 -8 5 -11 10 -3 6 -1 10 4 10 6 0 11
-4 11 -10z m-20 -110 c-10 -19 -108 -76 -116 -67 -2 2 19 14 47 27 57 27 68
42 71 97 l1 38 4 -37 c2 -20 -1 -46 -7 -58z m-175 -6 c-26 -20 -55 -36 -55
-30 0 5 63 46 70 46 3 -1 -4 -8 -15 -16z m-505 -399 c-41 -41 -77 -75 -79 -75
-3 0 28 34 69 75 41 41 77 75 79 75 3 0 -28 -34 -69 -75z m-230 -290 c0 -6
-97 -55 -107 -55 -4 1 17 14 47 30 61 32 60 32 60 25z m-221 -39 c-2 -2 -17
-6 -34 -10 -22 -5 -26 -4 -15 4 14 9 59 15 49 6z m-159 -79 c0 -2 -10 -12 -22
-23 l-23 -19 19 23 c18 21 26 27 26 19z m-50 -40 c0 -2 -10 -12 -22 -23 l-23
-19 19 23 c18 21 26 27 26 19z m239 -13 c-7 -8 -26 -22 -43 -31 -37 -18 -33
-13 14 21 42 29 46 31 29 10z"/>
<path d="M9011 7199 c0 -13 3 -18 6 -11 2 6 9 10 14 7 5 -4 17 -1 26 5 17 11
17 11 -1 6 -10 -4 -25 -1 -32 5 -11 9 -14 7 -13 -12z"/>
<path d="M7474 7185 c-10 -8 -14 -15 -8 -15 6 0 17 7 24 15 16 19 9 19 -16 0z"/>
<path d="M8890 7135 c0 -14 4 -25 9 -25 4 0 6 11 3 25 -2 14 -6 25 -8 25 -2 0
-4 -11 -4 -25z"/>
<path d="M8742 6970 l1 -65 7 50 c4 28 3 57 -1 65 -5 9 -8 -11 -7 -50z"/>
<path d="M3721 6983 c-1 -12 4 -25 9 -28 12 -7 12 2 0 30 -8 19 -9 19 -9 -2z"/>
<path d="M6657 6896 c-14 -21 -14 -25 -2 -30 10 -3 17 3 21 20 9 35 0 39 -19
10z"/>
<path d="M5656 6863 c-6 -14 -5 -15 5 -6 7 7 10 15 7 18 -3 3 -9 -2 -12 -12z"/>
<path d="M8616 6845 c8 -35 10 -39 17 -28 3 5 -1 19 -9 33 l-14 25 6 -30z"/>
<path d="M4027 6738 c-2 -18 -1 -40 4 -48 5 -10 8 1 9 33 0 55 -6 61 -13 15z"/>
<path d="M12552 6279 c18 -53 4 -203 -30 -299 -40 -116 -68 -168 -152 -284
-291 -401 -732 -821 -966 -919 -103 -43 -280 -67 -501 -67 l-125 0 26 -31 c31
-36 34 -84 10 -136 -84 -176 -1015 -734 -1409 -844 -200 -55 -458 11 -1195
308 -212 86 -398 159 -415 163 -16 4 -75 30 -130 57 -154 77 -392 174 -398
162 -10 -18 -77 -160 -77 -163 0 -2 33 -6 73 -9 40 -4 91 -13 113 -21 38 -13
43 -12 72 6 22 14 35 16 49 9 10 -5 65 -26 123 -47 58 -20 174 -70 259 -110
85 -41 158 -74 164 -74 5 0 161 -61 346 -136 495 -201 688 -270 911 -325 214
-53 304 -44 537 52 190 79 608 302 598 319 -3 5 0 12 6 16 8 4 9 3 5 -4 -11
-18 1 -15 50 14 24 14 42 30 39 34 -3 5 0 12 6 16 8 4 9 3 5 -4 -11 -18 5 -14
39 8 17 11 30 25 30 31 0 6 11 18 25 27 l25 14 -25 -21 c-14 -11 -20 -21 -15
-20 15 0 50 28 50 41 0 6 11 17 25 26 l25 14 -25 -21 c-30 -24 -20 -28 15 -5
14 9 23 20 20 24 -3 5 0 12 6 16 8 5 9 3 4 -6 -5 -8 -3 -11 6 -8 8 3 14 10 14
16 0 5 4 14 9 19 5 5 6 2 1 -6 -5 -9 -3 -12 6 -9 8 3 14 10 14 16 0 6 7 17 15
24 12 11 12 11 1 -4 -8 -11 -9 -18 -3 -18 11 0 27 19 27 32 0 3 4 10 9 15 5 5
6 3 2 -4 -4 -7 -3 -13 2 -13 12 0 33 25 27 32 -3 3 3 11 12 19 16 13 17 12 4
-3 -7 -10 -9 -18 -3 -18 12 0 34 25 27 32 -3 2 7 15 23 29 l27 24 -24 -27
c-34 -39 -11 -35 25 4 16 17 23 27 15 23 -10 -5 -12 -4 -7 4 4 6 11 9 16 6 5
-3 23 13 40 36 22 31 30 53 30 85 0 61 -42 94 -153 118 -15 4 -25 10 -22 15 3
5 24 5 47 -1 64 -15 485 -3 587 16 85 16 170 50 249 100 23 15 40 31 37 36 -3
5 0 12 6 16 8 4 9 3 5 -4 -11 -18 3 -14 35 9 16 11 27 24 24 28 -2 5 5 17 18
27 l22 19 -19 -22 c-11 -13 -15 -23 -9 -23 13 0 55 45 48 52 -3 2 5 13 17 24
l23 19 -19 -22 c-38 -46 -1 -21 80 53 46 42 81 81 77 86 -3 6 -2 8 4 5 13 -8
56 37 46 48 -5 4 -3 5 4 2 10 -6 134 120 242 244 50 59 36 58 -20 -2 l-51 -54
53 63 c49 59 69 77 53 50 -4 -7 2 -4 14 6 26 23 30 44 5 25 -15 -11 -14 -10 1
9 21 24 31 29 20 10 -4 -7 5 -2 19 11 33 30 36 52 5 25 l-23 -19 19 23 c11 12
21 20 24 17 7 -6 32 15 32 27 0 5 -6 6 -12 2 -8 -4 -10 -3 -5 2 5 5 12 9 15 9
13 0 32 16 32 27 0 6 -7 5 -17 -3 -16 -13 -17 -12 -5 3 8 10 19 16 24 15 6 -1
13 4 16 12 3 9 0 11 -9 6 -8 -5 -11 -4 -6 1 5 5 12 9 15 9 13 0 32 16 32 27 0
6 -7 5 -17 -3 -16 -13 -17 -12 -5 3 8 10 19 16 24 15 6 -1 13 4 16 12 3 9 0
11 -9 6 -8 -5 -11 -4 -6 1 5 5 13 9 19 9 15 0 55 76 89 173 39 112 49 241 25
324 -20 69 -92 153 -170 198 -30 16 -56 30 -59 30 -3 0 -1 -14 5 -31z m128
-69 l45 -41 -56 43 c-31 24 -64 49 -75 56 -11 7 -6 6 11 -2 17 -8 50 -33 75
-56z m65 -81 c9 -17 15 -33 13 -35 -3 -2 -12 12 -21 31 -21 43 -13 47 8 4z
m22 -71 c-3 -8 -6 -5 -6 6 -1 11 2 17 5 13 3 -3 4 -12 1 -19z m10 -40 c-3 -8
-6 -5 -6 6 -1 11 2 17 5 13 3 -3 4 -12 1 -19z m-2 -128 c-4 -23 -9 -39 -11
-37 -3 2 -2 23 2 46 4 23 9 40 11 37 3 -3 2 -23 -2 -46z m-24 -91 c-5 -13 -10
-19 -10 -12 -1 15 10 45 15 40 3 -2 0 -15 -5 -28z m-20 -60 c-5 -13 -10 -19
-10 -12 -1 15 10 45 15 40 3 -2 0 -15 -5 -28z m-46 -109 c-9 -16 -18 -30 -21
-30 -2 0 2 14 11 30 9 17 18 30 21 30 2 0 -2 -13 -11 -30z m-395 -505 c-24
-25 -46 -45 -49 -45 -3 0 15 20 39 45 24 25 46 45 49 45 3 0 -15 -20 -39 -45z
m-260 -260 c-24 -25 -46 -45 -49 -45 -3 0 15 20 39 45 24 25 46 45 49 45 3 0
-15 -20 -39 -45z m-270 -210 c0 -2 -10 -9 -22 -15 -22 -11 -22 -10 -4 4 21 17
26 19 26 11z m-54 -34 c-6 -10 -66 -33 -66 -26 0 3 15 11 33 19 40 18 39 18
33 7z m-86 -41 c-8 -5 -19 -10 -25 -10 -5 0 -3 5 5 10 8 5 20 10 25 10 6 0 3
-5 -5 -10z m-85 -21 c-51 -10 -92 -10 -50 1 17 4 44 8 60 8 25 0 24 -2 -10 -9z
m-220 -23 c11 -2 -59 -4 -155 -4 -96 0 -193 2 -215 6 -38 7 327 5 370 -2z m98
7 c-13 -2 -35 -2 -50 0 -16 2 -5 4 22 4 28 0 40 -2 28 -4z m-433 -63 c8 -5 11
-10 5 -10 -5 0 -17 5 -25 10 -8 5 -10 10 -5 10 6 0 17 -5 25 -10z m66 -54 c3
-13 4 -35 1 -47 -3 -16 -5 -12 -6 13 -1 24 -9 45 -23 59 l-23 21 22 -11 c13
-6 25 -22 29 -35z m-16 -95 c-5 -11 -15 -23 -21 -27 -6 -3 -3 5 6 20 20 30 30
35 15 7z m-3450 -131 c8 -5 11 -10 5 -10 -5 0 -17 5 -25 10 -8 5 -10 10 -5 10
6 0 17 -5 25 -10z m60 -20 c18 -12 2 -12 -25 0 -13 6 -15 9 -5 9 8 0 22 -4 30
-9z m50 -20 c8 -5 11 -10 5 -10 -5 0 -17 5 -25 10 -8 5 -10 10 -5 10 6 0 17
-5 25 -10z m50 -20 c8 -5 11 -10 5 -10 -5 0 -17 5 -25 10 -8 5 -10 10 -5 10 6
0 17 -5 25 -10z m85 -40 c3 -6 -1 -7 -9 -4 -18 7 -21 14 -7 14 6 0 13 -4 16
-10z m40 -20 c3 -6 -1 -7 -9 -4 -18 7 -21 14 -7 14 6 0 13 -4 16 -10z m40 -20
c3 -6 -1 -7 -9 -4 -18 7 -21 14 -7 14 6 0 13 -4 16 -10z m40 -20 c3 -6 -1 -7
-9 -4 -18 7 -21 14 -7 14 6 0 13 -4 16 -10z m45 -20 c8 -5 11 -10 5 -10 -5 0
-17 5 -25 10 -8 5 -10 10 -5 10 6 0 17 -5 25 -10z m45 -20 c3 -6 -1 -7 -9 -4
-18 7 -21 14 -7 14 6 0 13 -4 16 -10z m45 -10 c8 -5 11 -10 5 -10 -5 0 -17 5
-25 10 -8 5 -10 10 -5 10 6 0 17 -5 25 -10z m2520 5 c0 -2 -10 -9 -22 -15 -22
-11 -22 -10 -4 4 21 17 26 19 26 11z m-2450 -35 c8 -5 11 -10 5 -10 -5 0 -17
5 -25 10 -8 5 -10 10 -5 10 6 0 17 -5 25 -10z m2350 -25 c0 -2 -10 -9 -22 -15
-22 -11 -22 -10 -4 4 21 17 26 19 26 11z m-2246 -14 c4 -5 -3 -7 -14 -4 -23 6
-26 13 -6 13 8 0 17 -4 20 -9z m46 -21 c8 -5 11 -10 5 -10 -5 0 -17 5 -25 10
-8 5 -10 10 -5 10 6 0 17 -5 25 -10z m50 -20 c8 -5 11 -10 5 -10 -5 0 -17 5
-25 10 -8 5 -10 10 -5 10 6 0 17 -5 25 -10z m2050 -5 c0 -2 -10 -9 -22 -15
-22 -11 -22 -10 -4 4 21 17 26 19 26 11z m-2000 -15 c8 -5 11 -10 5 -10 -5 0
-17 5 -25 10 -8 5 -10 10 -5 10 6 0 17 -5 25 -10z m50 -20 c8 -5 11 -10 5 -10
-5 0 -17 5 -25 10 -8 5 -10 10 -5 10 6 0 17 -5 25 -10z m50 -20 c8 -5 11 -10
5 -10 -5 0 -17 5 -25 10 -8 5 -10 10 -5 10 6 0 17 -5 25 -10z m1820 6 c0 -2
-7 -7 -16 -10 -8 -3 -12 -2 -9 4 6 10 25 14 25 6z m-1710 -51 c33 -19 21 -19
-21 0 -19 8 -27 14 -19 14 8 0 26 -6 40 -14z m1630 10 c0 -2 -13 -11 -30 -20
-38 -19 -40 -11 -2 9 31 17 32 18 32 11z m-1540 -45 c8 -5 11 -10 5 -10 -5 0
-17 5 -25 10 -8 5 -10 10 -5 10 6 0 17 -5 25 -10z m1470 6 c0 -2 -7 -7 -16
-10 -8 -3 -12 -2 -9 4 6 10 25 14 25 6z m-1420 -26 c8 -5 11 -10 5 -10 -5 0
-17 5 -25 10 -8 5 -10 10 -5 10 6 0 17 -5 25 -10z m1380 5 c0 -6 -137 -75
-147 -75 -6 1 134 77 145 80 1 0 2 -2 2 -5z m-1330 -25 c8 -5 11 -10 5 -10 -5
0 -17 5 -25 10 -8 5 -10 10 -5 10 6 0 17 -5 25 -10z m60 -20 c18 -12 2 -12
-25 0 -13 6 -15 9 -5 9 8 0 22 -4 30 -9z m50 -20 c8 -5 11 -10 5 -10 -5 0 -17
5 -25 10 -8 5 -10 10 -5 10 6 0 17 -5 25 -10z m1060 -14 c0 -2 -7 -7 -16 -10
-8 -3 -12 -2 -9 4 6 10 25 14 25 6z m-950 -26 c8 -5 11 -10 5 -10 -5 0 -17 5
-25 10 -8 5 -10 10 -5 10 6 0 17 -5 25 -10z m880 -10 c-19 -11 -39 -19 -45
-19 -5 0 6 8 25 19 19 11 40 19 45 19 6 0 -6 -8 -25 -19z m-820 -10 c8 -5 11
-10 5 -10 -5 0 -17 5 -25 10 -8 5 -10 10 -5 10 6 0 17 -5 25 -10z m65 -20 c13
-6 15 -9 5 -9 -8 0 -22 4 -30 9 -18 12 -2 12 25 0z m685 0 c-8 -5 -19 -10 -25
-10 -5 0 -3 5 5 10 8 5 20 10 25 10 6 0 3 -5 -5 -10z m-615 -20 c13 -5 14 -9
5 -9 -8 0 -24 4 -35 9 -13 5 -14 9 -5 9 8 0 24 -4 35 -9z m565 0 c-8 -5 -19
-10 -25 -10 -5 0 -3 5 5 10 8 5 20 10 25 10 6 0 3 -5 -5 -10z m-513 -16 c-3
-3 -12 -4 -19 -1 -8 3 -5 6 6 6 11 1 17 -2 13 -5z m458 -4 c-27 -12 -43 -12
-25 0 8 5 22 9 30 9 10 0 8 -3 -5 -9z m-418 -6 c-3 -3 -12 -4 -19 -1 -8 3 -5
6 6 6 11 1 17 -2 13 -5z m73 -14 c20 -6 21 -8 5 -8 -11 0 -31 4 -45 8 -20 6
-21 8 -5 8 11 0 31 -4 45 -8z m285 0 c-11 -5 -27 -9 -35 -9 -9 0 -8 4 5 9 11
5 27 9 35 9 9 0 8 -4 -5 -9z m-112 -17 c-24 -2 -62 -2 -85 0 -24 2 -5 4 42 4
47 0 66 -2 43 -4z"/>
<path d="M4387 6191 c-4 -18 -7 -41 -7 -49 0 -15 1 -15 16 -1 12 12 13 24 6
50 l-8 34 -7 -34z"/>
<path d="M8525 6030 l-20 -9 20 0 c11 0 27 4 35 9 13 9 13 10 0 9 -8 0 -24 -4
-35 -9z"/>
<path d="M4497 6009 c4 -13 8 -18 11 -10 2 7 -1 18 -6 23 -8 8 -9 4 -5 -13z"/>
<path d="M4424 5638 l-15 -29 38 17 c21 9 46 18 55 21 30 9 9 24 -29 21 -27
-2 -38 -9 -49 -30z m30 13 c3 -5 -1 -11 -9 -14 -9 -4 -12 -1 -8 9 6 16 10 17
17 5z"/>
<path d="M4690 5551 c0 -6 4 -12 9 -15 13 -8 42 4 35 15 -7 12 -44 12 -44 0z"/>
<path d="M5024 5337 c-5 -7 -21 -19 -33 -27 -22 -15 -19 -15 43 -10 69 6 93 0
82 -19 -4 -7 1 -11 13 -11 10 0 26 -3 34 -6 9 -3 16 2 20 15 4 17 -2 21 -37
26 -22 4 -56 15 -74 26 -38 22 -34 22 -48 6z m29 -24 c-7 -2 -19 -2 -25 0 -7
3 -2 5 12 5 14 0 19 -2 13 -5z"/>
<path d="M930 4467 c0 -7 126 -107 135 -107 4 0 1 8 -6 18 -13 15 -12 16 4 3
9 -8 15 -16 12 -19 -6 -7 15 -32 27 -32 5 0 6 6 2 13 -4 7 -3 9 2 4 5 -5 9
-14 9 -19 0 -6 6 -13 14 -16 9 -3 11 0 6 8 -5 9 -4 11 4 6 6 -4 9 -11 6 -16
-3 -5 5 -16 17 -24 26 -19 42 -21 32 -4 -4 7 -3 8 5 4 6 -4 9 -11 6 -16 -3 -5
20 -23 50 -40 98 -56 174 -80 280 -90 112 -10 235 -13 235 -5 0 3 -9 16 -20
27 -45 48 -44 116 2 165 l21 23 -69 -8 c-38 -4 -163 -7 -279 -7 -195 0 -215 2
-280 24 -38 13 -80 30 -92 39 -13 8 -23 11 -23 7 0 -4 -22 10 -50 30 -27 20
-50 34 -50 32z m350 -233 c0 -2 -9 0 -20 6 -11 6 -20 13 -20 16 0 2 9 0 20 -6
11 -6 20 -13 20 -16z m35 -14 c3 -6 -1 -7 -9 -4 -18 7 -21 14 -7 14 6 0 13 -4
16 -10z m45 -20 c8 -5 11 -10 5 -10 -5 0 -17 5 -25 10 -8 5 -10 10 -5 10 6 0
17 -5 25 -10z m50 -20 c8 -5 11 -10 5 -10 -5 0 -17 5 -25 10 -8 5 -10 10 -5
10 6 0 17 -5 25 -10z m189 -26 c8 -7 -114 -2 -139 6 -14 4 11 5 55 2 44 -2 82
-6 84 -8z"/>
<path d="M7695 3964 c-19 -14 -36 -14 -91 2 -21 5 -21 4 -10 -30 12 -41 21
-43 56 -16 14 11 30 20 37 20 7 0 17 9 23 20 13 24 11 24 -15 4z m-45 -24 c18
-12 2 -12 -25 0 -13 6 -15 9 -5 9 8 0 22 -4 30 -9z"/>
<path d="M2039 3936 c38 -40 48 -44 48 -20 0 8 -19 25 -41 36 l-41 20 34 -36z"/>
<path d="M7732 3918 c-13 -13 -16 -38 -4 -38 4 0 12 11 19 25 12 27 5 33 -15
13z"/>
<path d="M7796 3581 c-3 -5 4 -11 16 -14 30 -8 35 -1 9 12 -11 6 -22 7 -25 2z"/>
<path d="M8636 3501 c-4 -5 3 -7 14 -4 23 6 26 13 6 13 -8 0 -17 -4 -20 -9z"/>
<path d="M8018 3405 c-6 -14 -8 -28 -5 -31 10 -11 37 17 37 37 0 27 -18 23
-32 -6z"/>
<path d="M8111 3355 c1 -35 17 -79 19 -55 4 28 -2 65 -11 75 -5 5 -9 -2 -8
-20z"/>
<path d="M8280 3257 c0 -7 9 -18 20 -25 24 -15 27 0 4 22 -19 19 -24 20 -24 3z"/>
<path d="M8911 3201 c-9 -6 -7 -10 8 -14 12 -3 21 -1 21 3 0 14 -15 19 -29 11z"/>
<path d="M8984 3036 c-20 -15 -21 -15 54 -41 21 -7 13 -25 -15 -37 -28 -12
-28 -12 20 -21 55 -12 62 -33 15 -50 l-33 -12 40 -5 c56 -7 61 -36 8 -46 l-38
-7 53 -15 c39 -11 52 -19 50 -31 -2 -9 -10 -17 -18 -18 -79 -10 -88 -14 -83
-33 4 -16 9 -18 19 -9 21 17 37 6 48 -34 l11 -36 49 30 c28 18 52 27 57 22 5
-5 5 -32 -1 -63 -6 -29 -8 -55 -6 -58 3 -2 17 -1 31 2 22 6 25 9 15 21 -10 12
-9 16 1 19 38 12 41 16 13 13 -25 -3 -31 0 -26 12 4 10 1 12 -8 6 -9 -5 -11
-4 -6 4 4 6 23 19 43 30 l36 18 -42 7 c-32 5 -41 10 -41 26 0 12 10 24 23 30
22 9 22 9 -4 9 -18 1 -29 9 -38 27 -6 15 -10 27 -9 29 2 1 14 9 28 18 l24 17
-36 0 c-20 0 -40 5 -43 10 -4 6 -10 8 -15 5 -5 -3 -12 0 -16 6 -5 8 -3 9 6 4
9 -5 10 -2 6 13 -5 16 -1 24 21 36 l28 15 -41 1 c-22 0 -44 3 -48 8 -4 4 -13
7 -18 7 -6 0 -13 7 -15 15 -4 13 -3 13 6 0 6 -8 11 -10 11 -4 0 6 15 16 33 21
l32 10 -25 10 c-14 6 -41 13 -60 17 -35 6 -34 5 30 -23 24 -10 24 -10 -5 -5
-16 3 -42 15 -57 25 -33 23 -38 23 -64 5z m163 -102 c-3 -3 -12 -4 -19 -1 -8
3 -5 6 6 6 11 1 17 -2 13 -5z m66 -91 c-7 -2 -19 -2 -25 0 -7 3 -2 5 12 5 14
0 19 -2 13 -5z m4 -115 c-3 -8 -6 -5 -6 6 -1 11 2 17 5 13 3 -3 4 -12 1 -19z"/>
<path d="M8116 2718 c-16 -51 -12 -59 85 -195 55 -76 111 -162 126 -191 25
-51 26 -58 19 -163 l-6 -110 34 6 c50 10 62 -2 35 -31 -25 -27 -20 -29 31 -14
47 13 61 -2 31 -34 -27 -28 -15 -41 25 -26 42 16 58 6 38 -24 -18 -28 -12 -46
15 -46 24 0 31 27 31 115 0 60 -5 78 -30 123 -17 29 -35 50 -40 47 -5 -3 -12
0 -16 6 -5 8 -3 9 6 4 8 -5 11 -3 8 6 -3 8 -10 14 -16 14 -5 0 -14 4 -19 9 -5
5 -2 6 6 1 9 -5 12 -3 9 6 -3 8 -10 14 -16 14 -6 0 -17 7 -24 15 -11 12 -11
12 5 1 9 -7 17 -9 17 -3 0 11 -21 30 -33 30 -5 0 -12 4 -15 8 -4 4 -1 4 7 -1
9 -5 12 -3 9 6 -3 8 -10 14 -16 14 -6 0 -17 7 -24 15 -11 12 -11 12 5 1 9 -7
17 -9 17 -3 0 11 -21 30 -33 30 -5 0 -12 4 -15 8 -4 4 -1 4 7 -1 9 -5 12 -3 9
6 -3 8 -10 14 -16 14 -6 0 -17 7 -24 15 -11 12 -11 12 5 1 9 -7 17 -9 17 -3 0
11 -22 31 -32 29 -3 -1 -10 2 -15 7 -4 5 -3 6 3 3 8 -4 11 1 11 16 -1 12 2 34
6 49 7 26 6 26 -23 18 -18 -5 -32 -5 -36 1 -3 5 -9 7 -14 4 -5 -3 -12 0 -16 6
-5 8 -3 9 6 4 8 -5 11 -3 8 6 -3 8 -10 14 -16 14 -6 0 -17 7 -24 15 -11 12
-11 12 5 1 9 -7 17 -9 17 -3 0 13 -25 33 -32 26 -3 -3 -9 0 -14 7 -5 8 -3 10
6 4 10 -6 12 -4 6 10 -4 11 0 25 10 36 16 18 15 19 -23 19 -47 0 -92 37 -71
58 9 9 9 12 0 12 -7 0 -14 -6 -16 -12z m76 -70 c25 -3 26 -4 11 -23 -13 -16
-15 -17 -10 -2 5 12 1 17 -12 17 -9 0 -28 12 -42 28 l-24 27 25 -22 c14 -12
37 -23 52 -25z m137 -165 c0 -10 -3 -13 -5 -6 -3 7 -13 9 -22 6 -15 -4 -15 -3
-2 6 22 15 30 14 29 -6z m211 -359 c12 -19 21 -37 18 -39 -2 -2 -14 14 -26 36
-28 49 -22 52 8 3z m27 -126 c-2 -13 -4 -3 -4 22 0 25 2 35 4 23 2 -13 2 -33
0 -45z"/>
<path d="M8985 2557 c-8 -53 -2 -69 14 -38 8 14 9 32 3 53 l-9 33 -8 -48z"/>
<path d="M9290 2313 c1 -36 26 -117 34 -105 4 6 2 20 -4 31 -5 11 -7 27 -4 35
3 9 2 16 -4 16 -6 0 -8 9 -5 20 3 11 0 20 -6 20 -6 0 -11 -8 -11 -17z"/>
<path d="M8177 1850 c-8 -32 -4 -34 19 -8 10 12 14 18 7 15 -6 -4 -13 -2 -15
5 -3 7 -7 2 -11 -12z"/>
<path d="M8686 1781 c-12 -5 -15 -10 -9 -14 6 -4 16 0 23 8 14 17 13 17 -14 6z"/>
<path d="M8828 1663 c-19 -5 -24 -18 -10 -27 4 -2 13 4 20 15 7 10 11 18 10
18 -2 -1 -11 -3 -20 -6z"/>
<path d="M4375 1430 c-16 -16 -26 -32 -24 -35 3 -2 21 11 39 30 19 19 29 35
24 35 -6 0 -23 -13 -39 -30z"/>
<path d="M8654 1394 c-2 -8 -6 -21 -9 -30 -3 -8 -1 -12 4 -9 5 3 12 1 16 -5 4
-6 10 -8 15 -5 5 3 12 0 16 -6 4 -8 3 -9 -4 -5 -18 11 -14 -6 8 -34 16 -20 20
-22 20 -7 0 9 -5 17 -11 17 -5 0 -7 4 -4 10 12 20 -6 78 -27 83 -11 3 -21 0
-24 -9z"/>
<path d="M4224 1248 l-19 -23 23 19 c21 18 27 26 19 26 -2 0 -12 -10 -23 -22z"/>
<path d="M9281 838 c1 -53 2 -58 10 -33 4 16 6 41 4 55 -4 16 -3 19 2 8 5 -9
20 -26 36 -38 17 -14 31 -38 39 -68 11 -45 12 -46 21 -19 5 15 14 27 20 27 7
0 6 5 -3 11 -13 9 -13 10 0 6 8 -2 15 -8 15 -13 0 -15 15 -34 27 -34 6 0 5 7
-3 18 -13 15 -12 16 3 3 10 -7 16 -17 13 -21 -2 -4 4 -15 14 -24 15 -14 20
-14 25 -4 3 7 3 3 0 -9 -3 -13 -1 -23 5 -23 6 0 11 9 11 20 0 30 11 25 64 -29
l49 -50 25 19 c25 20 42 19 42 -3 0 -7 -4 -6 -10 3 -8 13 -10 13 -10 -2 0 -21
48 -78 66 -78 10 0 14 13 14 46 0 33 -3 43 -12 38 -7 -4 7 14 32 40 24 25 46
46 49 46 3 0 -13 -19 -34 -42 -33 -36 -31 -35 13 7 28 27 52 52 52 56 0 4 -25
17 -56 28 -44 17 -63 19 -92 12 -54 -13 -70 -11 -64 11 3 12 -3 21 -19 27 -13
5 -19 10 -12 10 25 2 43 -12 44 -33 0 -20 1 -20 10 3 5 13 8 25 7 26 -2 1 -32
10 -67 19 -72 20 -81 15 -79 -42 2 -45 -23 -69 -56 -54 -13 6 -32 24 -42 41
-15 25 -23 29 -43 24 -16 -4 -28 -1 -35 9 -6 8 -14 16 -18 16 -5 1 -8 5 -7 8
0 5 -41 44 -48 44 -1 0 -3 -28 -2 -62z m106 -70 c-3 -8 -6 -5 -6 6 -1 11 2 17
5 13 3 -3 4 -12 1 -19z m342 8 c-2 -2 -17 -6 -34 -10 -22 -5 -26 -4 -15 4 14
9 59 15 49 6z m71 -6 c11 -8 7 -9 -15 -4 -37 8 -45 14 -19 14 10 0 26 -5 34
-10z m-50 -171 c0 -36 -16 -35 -38 2 l-14 24 21 -25 21 -25 0 28 c0 15 2 27 5
27 3 0 5 -14 5 -31z"/>
</g>
</svg>
